<svg width="1440" height="1024" viewBox="0 0 1440 1024" fill="none" xmlns="http://www.w3.org/2000/svg">
<g clip-path="url(#clip0_41_844)">
<path d="M-119 -43H-109.511H-32.9247H125.639H485.703H954.002H1314.08H1473.18H1549.41H1559V-6.98388V188.881V396.866V604.924V955.992V1024H1540.72H1446.93H1265.24H174.418H-7.54491H-101.34H-119V957.474V604.833V395.07V188.755V-8.36402V-43Z" fill="#F80090"/>
<path d="M954.002 -43H1314.08H1473.18H1549.41H1559V-6.98388V188.881V396.866V604.924C1557 602.297 1546.69 558.958 1544.74 551.797C1481.65 326.166 1329 136.125 1122.23 25.7856C1086.52 6.92627 1049.58 -9.49227 1011.65 -23.3571C1002.4 -26.8427 993.036 -30.0042 983.572 -32.8361C976.452 -35.0329 959.599 -39.5324 954.002 -43Z" fill="#CF047A"/>
<path d="M1314.08 -43H1473.18H1549.41H1559V-6.98388V188.881V396.866C1557.39 394.712 1544.31 342.433 1542.18 334.965C1538.34 321.487 1534.16 308.105 1529.64 294.834C1492.65 187.636 1434.73 88.8429 1359.25 4.18114C1344.79 -12.15 1329.45 -27.5303 1314.08 -43Z" fill="#F80090"/>
<path d="M-119 -43H-109.511H-32.9247H125.639H485.703C480.237 -39.5784 462.22 -34.7751 454.889 -32.457C444.091 -28.9895 433.367 -25.2946 422.724 -21.3749C386.489 -7.91928 351.171 7.88428 316.994 25.9352C109.274 136.817 -43.6773 328.196 -105.975 555.171C-107.734 561.684 -117.142 602.191 -119 604.833V395.07V188.755V-8.36402V-43Z" fill="#CF047A"/>
<path d="M-119 -43H-109.511H-32.9247H125.639C5.39487 77.7012 -76.7215 214.322 -114.612 381.058C-115.288 384.035 -117.259 392.804 -119 395.07V188.755V-8.36402V-43Z" fill="#F80090"/>
<path d="M1516.79 676.972C1522.66 690.661 1550.62 769.74 1549.44 780.785C1547.12 802.518 1522.55 870.788 1513.89 892.463C1495.35 938.132 1472.95 982.131 1446.93 1024H1265.24C1275.53 1013.98 1286.69 1005.12 1297.3 995.454C1312.36 981.443 1327.03 967.014 1341.29 952.201C1416.99 872.622 1476.58 779.163 1516.79 676.972Z" fill="#CF047A"/>
<path d="M-7.54486 1024C-16.796 1007.16 -26.9033 991.228 -36.0283 974.024C-61.9387 925.407 -83.058 874.391 -99.0882 821.696C-109.968 786.075 -113.132 787.156 -102.595 751.013C-97.6854 734.486 -92.3469 718.088 -86.5843 701.837C-83.9527 694.413 -79.7089 684.191 -77.5844 676.984C-64.9575 703.194 -55.7896 727.791 -41.8534 754.779C-0.517418 835.085 53.2892 908.342 117.565 971.821C137.086 991.163 155.2 1005.89 174.418 1024H-7.54486Z" fill="#CF047A"/>
<path d="M796.968 140.156C790.463 138.505 779.476 137.641 771.79 136.119C773.609 135.372 794.33 137.721 797.755 138.02C829.144 139.314 871.061 146.669 901.95 153.316C1073.17 190.475 1228.83 279.323 1347.85 407.831C1386.3 449.35 1420.55 494.56 1450.11 542.804C1454.23 549.544 1464.72 566.369 1467.53 572.933C1355.3 773.742 1166.93 920.952 944.883 981.385C895.1 995.265 826.653 1006.94 774.732 1009.06L774.994 1007.61C786.44 1007.7 805.44 1003.32 816.739 1000.65C877.952 986.716 935.494 959.923 985.53 922.033C1076.15 853.198 1136.53 751.926 1154 639.512C1171.9 523.218 1142.38 404.607 1072.04 310.251C1013.21 231.511 929.644 174.762 834.732 149.078C824.154 146.255 807.481 141.683 796.968 140.156Z" fill="#CF047A"/>
<path d="M630.19 138.89C633.99 138.609 667.426 135.799 667.979 135.973C663.404 137.895 639.112 140.283 631.721 141.987C605.249 149.556 588.551 152.763 562.009 163.047C465.482 200.353 385.128 270.353 334.973 360.83C278.914 462.631 265.516 582.49 297.714 694.145C330.203 806.284 405.983 900.906 508.346 957.147C551.462 980.927 610.32 1001.48 659.481 1007.34L659.659 1008.7C651.644 1008.67 636.677 1006.92 628.287 1006.12C568.057 1000.01 508.672 987.347 451.185 968.373C281.563 912.223 133.747 804.475 28.4166 660.214C10.5821 635.785 -14.3143 599.343 -27.8743 572.405C-0.253637 522.924 32.2265 476.315 69.0859 433.266C179.949 303.636 327.091 210.132 491.575 164.791C533.488 153.113 586.551 142.267 630.19 138.89Z" fill="#CF047A"/>
<path d="M709.48 383.9C813.691 378.218 902.786 458.015 908.513 562.16C914.248 666.305 834.445 755.387 730.242 761.162C625.978 766.94 536.778 687.121 531.043 582.911C525.308 478.7 605.211 389.585 709.48 383.9Z" fill="#CF047A"/>
<path d="M659.481 1007.34C665.354 1007.76 670.443 1008.47 676.25 1009.28L676.481 1009.7C672.332 1009.95 663.834 1009.49 659.659 1008.7L659.481 1007.34Z" fill="#CF047A"/>
<path d="M758.738 1009.75C764.056 1008.89 769.635 1008.28 774.994 1007.61L774.732 1009.06C768.161 1009.99 765.383 1010.37 758.738 1009.75Z" fill="#CF047A"/>
</g>
<defs>
<clipPath id="clip0_41_844">
<rect width="1678" height="1067" fill="white" transform="translate(-119 -43)"/>
</clipPath>
</defs>
</svg>
