<svg width="390" height="696" viewBox="0 0 390 696" fill="none" xmlns="http://www.w3.org/2000/svg">
<g clip-path="url(#clip0_316_3018)">
<path d="M-79 0H-75.9011H-50.8896H0.894012H118.483H271.42H389.016H440.974H465.869H469V11.7466V75.6276V143.461V211.319V325.819V348H463.03H432.401H373.065H16.8243H-42.6011H-73.2326H-79V326.303V211.289V142.876V75.5865V11.2965V0Z" fill="#F80090"/>
<path d="M271.42 0H389.016H440.974H465.869H469V11.7466V75.6276V143.461V211.319C468.347 210.462 464.981 196.327 464.344 193.992C443.741 120.403 393.888 58.4213 326.359 22.4343C314.698 16.2834 302.633 10.9285 290.247 6.40649C287.226 5.26968 284.168 4.23855 281.077 3.31495C278.752 2.59846 273.248 1.13096 271.42 0Z" fill="#CF047A"/>
<path d="M389.016 0H440.974H465.869H469V11.7466V75.6276V143.461C468.473 142.759 464.202 125.708 463.507 123.273C462.252 118.877 460.887 114.512 459.413 110.184C447.331 75.2214 428.416 43.0003 403.767 15.388C399.044 10.0617 394.033 5.04541 389.016 0Z" fill="#F80090"/>
<path d="M-79 0H-75.9011H-50.8896H0.89402H118.483C116.698 1.11596 110.814 2.68254 108.42 3.43858C104.894 4.56951 101.392 5.77458 97.916 7.053C86.0823 11.4415 74.5481 16.5958 63.3866 22.4831C-4.45033 58.6469 -54.4012 121.065 -74.7461 195.092C-75.3208 197.217 -78.3932 210.428 -79 211.289V142.876V75.5865V11.2965V0Z" fill="#CF047A"/>
<path d="M-79 0H-75.9011H-50.8896H0.894005C-38.3752 39.3665 -65.1927 83.9251 -77.5668 138.306C-77.7877 139.277 -78.4313 142.136 -79 142.876V75.5865V11.2965V0Z" fill="#F80090"/>
<path d="M455.214 234.817C457.133 239.282 466.263 265.074 465.877 268.676C465.12 275.764 457.095 298.03 454.267 305.1C448.212 319.994 440.896 334.344 432.401 348H373.065C376.426 344.731 380.07 341.844 383.536 338.69C388.451 334.12 393.243 329.414 397.899 324.583C422.623 298.628 442.084 268.147 455.214 234.817Z" fill="#CF047A"/>
<path d="M-42.6011 348C-45.6223 342.506 -48.9232 337.312 -51.9032 331.7C-60.365 315.844 -67.2621 299.205 -72.4973 282.019C-76.0504 270.401 -77.0838 270.754 -73.6424 258.966C-72.0391 253.576 -70.2957 248.227 -68.4137 242.927C-67.5543 240.506 -66.1684 237.172 -65.4746 234.822C-61.3509 243.37 -58.3568 251.392 -53.8056 260.194C-40.3061 286.386 -22.734 310.278 -1.74273 330.982C4.63232 337.29 10.5479 342.095 16.8242 348H-42.6011Z" fill="#CF047A"/>
<path d="M220.136 59.7361C218.012 59.1974 214.423 58.9156 211.914 58.4194C212.508 58.1758 219.275 58.9418 220.393 59.0393C230.644 59.4613 244.333 61.8601 254.421 64.028C310.34 76.1474 361.174 105.125 400.042 147.038C412.6 160.579 423.785 175.324 433.439 191.059C434.785 193.257 438.21 198.745 439.128 200.885C402.477 266.379 340.958 314.391 268.442 334.101C252.184 338.628 229.831 342.437 212.874 343.129L212.96 342.653C216.698 342.683 222.903 341.254 226.593 340.386C246.584 335.84 265.376 327.101 281.717 314.744C311.311 292.293 331.031 259.263 336.736 222.6C342.583 184.671 332.942 145.986 309.97 115.212C290.755 89.5311 263.465 71.0227 232.469 62.6459C229.015 61.7253 223.569 60.2339 220.136 59.7361Z" fill="#CF047A"/>
<path d="M165.67 59.3232C166.911 59.2313 177.831 58.315 178.011 58.3716C176.517 58.9987 168.584 59.7775 166.17 60.3333C157.525 62.8018 152.072 63.8477 143.403 67.2019C111.88 79.3691 85.6378 102.2 69.2581 131.709C50.9504 164.911 46.5749 204.002 57.0902 240.418C67.7005 276.993 92.4485 307.853 125.878 326.196C139.959 333.952 159.181 340.655 175.236 342.565L175.294 343.008C172.676 343 167.788 342.429 165.048 342.167C145.378 340.175 125.985 336.046 107.211 329.857C51.8155 311.544 3.54195 276.402 -30.8568 229.352C-36.6812 221.384 -44.8118 209.499 -49.2402 200.713C-40.2199 184.575 -29.6126 169.373 -17.575 155.333C18.6304 113.055 66.684 82.5585 120.401 67.7705C134.089 63.9617 151.418 60.4246 165.67 59.3232Z" fill="#CF047A"/>
<path d="M191.564 139.233C225.598 137.379 254.694 163.405 256.564 197.372C258.437 231.339 232.375 260.392 198.345 262.276C164.294 264.16 135.164 238.128 133.291 204.14C131.418 170.151 157.512 141.087 191.564 139.233Z" fill="#CF047A"/>
<path d="M175.236 342.565C177.154 342.704 178.816 342.934 180.712 343.198L180.788 343.337C179.433 343.417 176.657 343.267 175.294 343.008L175.236 342.565Z" fill="#CF047A"/>
<path d="M207.651 343.353C209.388 343.072 211.21 342.872 212.96 342.653L212.874 343.129C210.728 343.43 209.821 343.556 207.651 343.353Z" fill="#CF047A"/>
</g>
<g clip-path="url(#clip1_316_3018)">
<path d="M-79 348H-75.9011H-50.8896H0.894012H118.483H271.42H389.016H440.974H465.869H469V359.747V423.628V491.461V559.319V673.819V696H463.03H432.401H373.065H16.8243H-42.6011H-73.2326H-79V674.303V559.289V490.876V423.587V359.296V348Z" fill="#F80090"/>
<path d="M271.42 348H389.016H440.974H465.869H469V359.747V423.628V491.461V559.319C468.347 558.462 464.981 544.327 464.344 541.992C443.741 468.403 393.888 406.421 326.359 370.434C314.698 364.283 302.633 358.928 290.247 354.406C287.226 353.27 284.168 352.239 281.077 351.315C278.752 350.598 273.248 349.131 271.42 348Z" fill="#CF047A"/>
<path d="M389.016 348H440.974H465.869H469V359.747V423.628V491.461C468.473 490.759 464.202 473.708 463.507 471.273C462.252 466.877 460.887 462.512 459.413 458.184C447.331 423.221 428.416 391 403.767 363.388C399.044 358.062 394.033 353.045 389.016 348Z" fill="#F80090"/>
<path d="M-79 348H-75.9011H-50.8896H0.89402H118.483C116.698 349.116 110.814 350.683 108.42 351.439C104.894 352.57 101.392 353.775 97.916 355.053C86.0823 359.442 74.5481 364.596 63.3866 370.483C-4.45033 406.647 -54.4012 469.065 -74.7461 543.092C-75.3208 545.217 -78.3932 558.428 -79 559.289V490.876V423.587V359.296V348Z" fill="#CF047A"/>
<path d="M-79 348H-75.9011H-50.8896H0.894005C-38.3752 387.366 -65.1927 431.925 -77.5668 486.306C-77.7877 487.277 -78.4313 490.136 -79 490.876V423.587V359.296V348Z" fill="#F80090"/>
<path d="M455.214 582.817C457.133 587.282 466.263 613.074 465.877 616.676C465.12 623.764 457.095 646.03 454.267 653.1C448.212 667.994 440.896 682.344 432.401 696H373.065C376.426 692.731 380.07 689.844 383.536 686.69C388.451 682.12 393.243 677.414 397.899 672.583C422.623 646.628 442.084 616.147 455.214 582.817Z" fill="#CF047A"/>
<path d="M-42.6011 696C-45.6223 690.506 -48.9232 685.312 -51.9032 679.7C-60.365 663.844 -67.2621 647.205 -72.4973 630.019C-76.0504 618.401 -77.0838 618.754 -73.6424 606.966C-72.0391 601.576 -70.2957 596.227 -68.4137 590.927C-67.5543 588.506 -66.1684 585.172 -65.4746 582.822C-61.3509 591.37 -58.3568 599.392 -53.8056 608.194C-40.3061 634.386 -22.734 658.278 -1.74273 678.982C4.63232 685.29 10.5479 690.095 16.8242 696H-42.6011Z" fill="#CF047A"/>
<path d="M220.136 407.736C218.012 407.197 214.423 406.916 211.914 406.419C212.508 406.176 219.275 406.942 220.393 407.039C230.644 407.461 244.333 409.86 254.421 412.028C310.34 424.147 361.174 453.125 400.042 495.038C412.6 508.579 423.785 523.324 433.439 539.059C434.785 541.257 438.21 546.745 439.128 548.885C402.477 614.379 340.958 662.391 268.442 682.101C252.184 686.628 229.831 690.437 212.874 691.129L212.96 690.653C216.698 690.683 222.903 689.254 226.593 688.386C246.584 683.84 265.376 675.101 281.717 662.744C311.311 640.293 331.031 607.263 336.736 570.6C342.583 532.671 332.942 493.986 309.97 463.212C290.755 437.531 263.465 419.023 232.469 410.646C229.015 409.725 223.569 408.234 220.136 407.736Z" fill="#CF047A"/>
<path d="M165.67 407.323C166.911 407.231 177.831 406.315 178.011 406.372C176.517 406.999 168.584 407.777 166.17 408.333C157.525 410.802 152.072 411.848 143.403 415.202C111.88 427.369 85.6378 450.2 69.2581 479.709C50.9504 512.911 46.5749 552.002 57.0902 588.418C67.7005 624.993 92.4485 655.853 125.878 674.196C139.959 681.952 159.181 688.655 175.236 690.565L175.294 691.008C172.676 691 167.788 690.429 165.048 690.167C145.378 688.175 125.985 684.046 107.211 677.858C51.8155 659.544 3.54195 624.402 -30.8568 577.352C-36.6812 569.384 -44.8118 557.499 -49.2402 548.713C-40.2199 532.575 -29.6126 517.373 -17.575 503.333C18.6304 461.055 66.684 430.559 120.401 415.771C134.089 411.962 151.418 408.425 165.67 407.323Z" fill="#CF047A"/>
<path d="M191.564 487.233C225.598 485.379 254.694 511.405 256.564 545.372C258.437 579.339 232.375 608.392 198.345 610.276C164.294 612.16 135.164 586.128 133.291 552.14C131.418 518.151 157.512 489.087 191.564 487.233Z" fill="#CF047A"/>
<path d="M175.236 690.565C177.154 690.704 178.816 690.934 180.712 691.198L180.788 691.337C179.433 691.417 176.657 691.267 175.294 691.008L175.236 690.565Z" fill="#CF047A"/>
<path d="M207.651 691.353C209.388 691.073 211.21 690.872 212.96 690.653L212.874 691.129C210.728 691.43 209.821 691.556 207.651 691.353Z" fill="#CF047A"/>
</g>
<defs>
<clipPath id="clip0_316_3018">
<rect width="548" height="348" fill="white" transform="translate(-79)"/>
</clipPath>
<clipPath id="clip1_316_3018">
<rect width="548" height="348" fill="white" transform="translate(-79 348)"/>
</clipPath>
</defs>
</svg>
