<svg width="35" height="24" viewBox="0 0 35 24" fill="none" xmlns="http://www.w3.org/2000/svg">
<path d="M33.0649 7.62796C32.9708 7.71122 32.8534 7.80186 32.7017 7.90936C31.4529 8.79624 29.8682 9.34797 28.19 9.93237C25.3146 10.9336 22.3414 11.9686 20.4511 14.8168C19.9651 15.5493 19.7792 16.2918 19.9096 16.9257C20.0999 16.6137 20.2815 16.3318 20.5109 16.0267L20.7311 15.7337L20.9442 16.0314C21.6912 17.0764 22.8421 17.6756 24.1017 17.6756C24.7943 17.6756 25.5011 17.4927 26.1448 17.1465C27.1108 16.6269 27.7578 15.8301 27.9671 14.9032C28.172 13.9942 27.9366 13.033 27.3033 12.1978L27.1016 11.9322L29.2224 11.0869L29.3479 11.2261C30.4874 12.4924 30.8544 14.0727 30.4091 15.7975C29.9449 17.5955 28.4351 19.1247 26.4699 19.7887C25.7332 20.0374 24.9841 20.1634 24.2425 20.1634C23.2335 20.1634 22.2462 19.9352 21.2959 19.4836C21.7178 19.9368 22.2593 20.2898 22.7654 20.5981C23.6092 21.1119 24.6035 21.3833 25.6408 21.3833C26.6781 21.3833 27.6507 21.134 28.5624 20.6629C29.1957 20.3357 29.7535 19.921 30.2683 19.394C31.2426 18.397 31.9167 17.1133 32.2189 15.6815C32.4625 14.527 32.4081 13.8235 32.407 13.8145C32.3239 12.7548 32.1249 11.8189 31.7808 10.8693C31.4867 10.0562 31.6182 9.42227 32.2081 8.81363C32.6115 8.3968 32.8963 8.00316 33.0638 7.62849L33.0649 7.62796ZM27.1353 13.8619L27.4963 13.9009C27.5822 13.9225 27.5669 14.0126 27.4832 14.0095C26.8732 13.9884 26.659 13.8762 26.4394 14.205C26.3497 14.3388 26.3225 14.5628 26.4541 14.7615L27.0217 15.3522C27.0249 15.5271 26.2578 14.7156 25.7294 15.105C25.2852 15.4323 25.8789 16.4572 25.7011 16.4377L25.2325 15.7031C25.1504 15.5862 24.8454 15.525 24.6356 15.5967C24.161 15.7595 24.267 16.6622 24.1729 16.6432C24.0631 16.628 24.18 15.7832 23.856 15.5603C23.7369 15.4787 23.5428 15.515 23.4417 15.6172L22.785 16.2802C22.6012 16.3065 23.3901 15.4992 22.8095 15.0755C22.1511 14.5949 21.5672 15.3459 21.5308 15.1883L22.2615 14.5844C23.059 13.9252 23.5592 15.8749 25.4135 14.792C26.7352 14.02 25.8833 12.3153 26.198 12.5566C26.2225 12.5751 26.2899 12.7311 26.2975 12.8085C26.3073 12.9076 26.322 13.0262 26.335 13.1036C26.3921 13.4361 26.5601 13.7824 27.1353 13.8609V13.8619Z" fill="#FFF9EB"/>
<path d="M9.07272 10.7913L5.05407 9.29579C3.94394 8.88265 2.94906 8.49376 2.01616 7.91568C1.84001 7.8066 1.70682 7.66168 1.59863 7.50412C1.80196 8.04426 2.18741 8.47953 2.40486 8.69611C3.06431 9.35218 3.22034 9.99824 2.92514 10.8561C2.56035 11.9185 2.36355 12.8549 2.30701 13.8055C2.30538 13.8303 2.14174 16.307 3.18555 17.6977L3.24589 17.781L3.24372 17.8004C3.9945 19.14 5.01547 20.1101 6.36154 20.7641C7.19224 21.1677 8.11536 21.3812 9.03086 21.3812C10.372 21.3812 11.6725 20.9269 12.6918 20.1022L12.7424 20.0616C12.9761 19.8725 13.2039 19.6886 13.4056 19.4862C12.4515 19.9362 11.4691 20.1639 10.4737 20.1639C9.71477 20.1639 8.94279 20.03 8.17896 19.7655C6.32403 19.1231 4.85999 17.6761 4.35765 15.9877C3.83086 14.2176 4.18803 12.5277 5.36232 11.2303L5.48899 11.0901L7.60868 11.9601L7.40481 12.2236C6.79864 13.0077 6.55508 13.9183 6.71818 14.7873C6.88562 15.681 7.46407 16.4736 8.34641 17.0184C9.04717 17.4511 9.82785 17.6803 10.6053 17.6803C11.866 17.6803 13.0207 17.0753 13.7726 16.0204L14.0036 15.6958L14.7941 16.9357C14.8811 16.4625 14.8104 15.954 14.581 15.4165C13.6883 13.3271 10.7656 11.421 9.07164 10.7908L9.07272 10.7913ZM12.1204 15.4028C11.5398 15.8264 12.3286 16.6338 12.1449 16.6074L11.4882 15.9445C11.387 15.8423 11.193 15.8054 11.0739 15.8876C10.7499 16.1105 10.8662 16.9552 10.757 16.9705C10.6629 16.9895 10.7689 16.0868 10.2943 15.9239C10.0839 15.8517 9.77947 15.9134 9.69738 16.0299L9.22875 16.7644C9.05098 16.7834 9.64464 15.759 9.20048 15.4317C8.67205 15.0423 7.90497 15.8538 7.90823 15.6789L8.4758 15.0882C8.6079 14.889 8.58018 14.6655 8.49048 14.5317C8.27084 14.2029 8.05664 14.3151 7.44667 14.3362C7.36295 14.3388 7.34772 14.2492 7.43362 14.2276L7.7946 14.1886C8.36979 14.1101 8.53832 13.7639 8.59486 13.4314C8.6079 13.3539 8.62258 13.2359 8.63237 13.1363C8.63998 13.0588 8.70739 12.9034 8.73186 12.8844C9.04717 12.6425 8.19527 14.3478 9.51634 15.1198C11.3702 16.2027 11.8709 14.2535 12.6679 14.9122L13.3985 15.5161C13.3621 15.6731 12.7782 14.9222 12.1199 15.4033L12.1204 15.4028Z" fill="#FFF9EB"/>
<path d="M19.1131 20.5175C19.7703 20.6418 20.2819 21.2858 20.2384 21.9455C20.1944 22.62 19.6236 23.3083 18.745 23.2925C18.6847 23.2914 18.6249 23.2888 18.5656 23.2845C18.247 23.2619 17.9948 23.1913 17.811 23.0732C18.1225 23.361 18.5053 23.5322 18.9087 23.5607C19.1919 23.5807 19.4735 23.5317 19.7453 23.4142C20.4466 23.1112 20.8174 22.4161 20.6473 21.7237C20.4923 21.0924 19.8802 20.6139 19.1125 20.5169L19.1131 20.5175Z" fill="#FFF9EB"/>
<path d="M19.2872 20.4098C19.7107 19.7627 19.0736 18.9928 18.382 18.2519C18.1651 18.0195 17.9776 17.8187 17.8569 17.6401L17.7922 17.5431L17.8232 17.4314C18.8659 13.701 21.5988 10.7205 25.518 9.03952C26.4009 8.66116 27.2718 8.37608 28.1144 8.09995C29.5551 7.62832 30.9164 7.18303 32.2136 6.32566C34.3235 4.93132 35.1107 2.65115 34.4278 0C33.0111 2.7987 30.6424 3.70455 27.9291 4.74161C26.2003 5.40242 24.2404 6.15177 22.2729 7.50711C20.1125 8.99578 18.6435 10.9888 18.0254 13.271L17.5464 15.0406L17.0256 15.0069C16.4298 10.3222 13.6213 7.35693 7.63518 5.09257L7.13013 4.90234C4.22106 3.80942 1.68113 2.85456 0.238828 0.056912C-0.496186 2.86194 0.479121 5.24802 2.97447 6.67241C4.08895 7.30845 5.2366 7.67732 6.4522 8.06833C8.16034 8.61795 9.92612 9.18602 11.8767 10.5503C14.8744 12.6471 15.9438 14.6 16.868 17.4709L16.9131 17.61L15.7693 18.8547C15.2202 19.4523 15.1212 20.2022 15.498 20.9131C16.0617 21.9775 16.6793 22.9672 17.3317 24L19.2872 20.4087V20.4098Z" fill="#FFF9EB"/>
</svg>
