<svg width="84" height="40" viewBox="0 0 84 40" fill="none" xmlns="http://www.w3.org/2000/svg">
<g clip-path="url(#clip0_51_6292)">
<path d="M65.596 13.4406C65.4549 13.5655 65.2788 13.7015 65.0513 13.8627C63.1782 15.193 60.8011 16.0206 58.2838 16.8972C53.9709 18.399 49.5111 19.9514 46.6758 24.2236C45.9468 25.3223 45.6679 26.436 45.8636 27.3869C46.149 26.919 46.4214 26.4961 46.7655 26.0385L47.0958 25.599L47.4154 26.0456C48.5359 27.613 50.2622 28.5117 52.1516 28.5117C53.1905 28.5117 54.2506 28.2374 55.2161 27.7181C56.6651 26.9388 57.6355 25.7436 57.9495 24.3533C58.2569 22.9898 57.9038 21.548 56.9538 20.2952L56.6513 19.8968L59.8324 18.629L60.0207 18.8377C61.7299 20.7371 62.2804 23.1076 61.6125 25.6946C60.9161 28.3916 58.6516 30.6854 55.7037 31.6813C54.5988 32.0544 53.4751 32.2433 52.3628 32.2433C50.8493 32.2433 49.3684 31.9011 47.943 31.2237C48.5758 31.9034 49.388 32.433 50.1472 32.8954C51.4128 33.6661 52.9043 34.0732 54.4601 34.0732C56.016 34.0732 57.4749 33.6993 58.8424 32.9926C59.7924 32.5018 60.6291 31.8797 61.4013 31.0893C62.8626 29.5938 63.8738 27.6683 64.3272 25.5207C64.6925 23.7889 64.6109 22.7337 64.6093 22.7203C64.4845 21.1307 64.1861 19.7269 63.6699 18.3026C63.2287 17.0829 63.4261 16.132 64.3108 15.2191C64.9159 14.5939 65.3432 14.0034 65.5944 13.4414L65.596 13.4406ZM56.7018 22.7914L57.2433 22.8499C57.3721 22.8823 57.3493 23.0175 57.2237 23.0127C56.3088 22.9811 55.9875 22.8127 55.658 23.306C55.5235 23.5067 55.4827 23.8427 55.6801 24.1406L56.5314 25.0267C56.5363 25.2891 55.3857 24.0719 54.5931 24.656C53.9268 25.1469 54.8173 26.6842 54.5507 26.655L53.8477 25.5531C53.7246 25.3777 53.2671 25.286 52.9524 25.3935C52.2405 25.6377 52.3995 26.9917 52.2584 26.9633C52.0937 26.9403 52.269 25.6733 51.783 25.3389C51.6044 25.2164 51.3133 25.271 51.1616 25.4243L50.1765 26.4187C49.9009 26.4582 51.0842 25.2472 50.2132 24.6117C49.2257 23.8909 48.3499 25.0172 48.2953 24.7809L49.3913 23.8751C50.5875 22.8862 51.3378 25.8108 54.1193 24.1865C56.1017 23.0285 54.8238 20.4715 55.296 20.8335C55.3327 20.8612 55.4338 21.0951 55.4452 21.2113C55.4599 21.3599 55.4819 21.5378 55.5015 21.654C55.5871 22.1527 55.8391 22.672 56.7018 22.7898V22.7914Z" fill="white"/>
<path d="M29.6084 18.1856L23.5805 15.9423C21.9153 15.3226 20.4231 14.7393 19.0237 13.8722C18.7595 13.7086 18.5597 13.4912 18.3975 13.2549C18.7024 14.0651 19.2806 14.718 19.6068 15.0428C20.5959 16.0269 20.83 16.996 20.3872 18.2828C19.84 19.8763 19.5448 21.2809 19.46 22.7068C19.4576 22.744 19.2121 26.459 20.7778 28.5449L20.8683 28.6698L20.865 28.699C21.9912 30.7083 23.5226 32.1635 25.5417 33.1444C26.7877 33.7499 28.1723 34.07 29.5456 34.07C31.5573 34.07 33.5079 33.3886 35.0368 32.1516L35.1127 32.0908C35.4633 31.807 35.805 31.5311 36.1075 31.2276C34.6764 31.9026 33.2029 32.2441 31.7098 32.2441C30.5714 32.2441 29.4135 32.0433 28.2677 31.6465C25.4854 30.683 23.2894 28.5125 22.5359 25.98C21.7457 23.3249 22.2815 20.79 24.0429 18.844L24.2329 18.6337L27.4123 19.9387L27.1065 20.334C26.1973 21.5101 25.832 22.876 26.0766 24.1794C26.3278 25.5199 27.1954 26.7087 28.5189 27.5261C29.57 28.175 30.741 28.5188 31.9071 28.5188C33.7982 28.5188 35.5302 27.6114 36.658 26.029L37.0045 25.5421L38.1902 27.402C38.3207 26.6921 38.2147 25.9294 37.8706 25.1232C36.5316 21.9891 32.1477 19.1301 29.6067 18.1848L29.6084 18.1856ZM34.1798 25.1026C33.3089 25.7381 34.4921 26.949 34.2165 26.9095L33.2314 25.9152C33.0797 25.7618 32.7886 25.7065 32.61 25.8298C32.124 26.1641 32.2985 27.4312 32.1346 27.4541C31.9936 27.4826 32.1526 26.1286 31.4407 25.8843C31.1251 25.776 30.6684 25.8685 30.5453 26.0432L29.8424 27.1451C29.5757 27.1735 30.4662 25.6369 29.8 25.1461C29.0074 24.5619 27.8568 25.7792 27.8616 25.5168L28.713 24.6307C28.9111 24.3319 28.8695 23.9968 28.735 23.796C28.4056 23.3028 28.0843 23.4712 27.1693 23.5028C27.0437 23.5067 27.0209 23.3724 27.1498 23.3399L27.6912 23.2815C28.554 23.1637 28.8068 22.6444 28.8916 22.1456C28.9111 22.0294 28.9332 21.8524 28.9478 21.703C28.9592 21.5868 29.0604 21.3536 29.0971 21.3252C29.57 20.9623 28.2922 23.5202 30.2738 24.6781C33.0545 26.3025 33.8055 23.3787 35.001 24.3667L36.0969 25.2725C36.0423 25.5081 35.1665 24.3817 34.179 25.1034L34.1798 25.1026Z" fill="white"/>
<path d="M44.669 32.7745C45.6548 32.961 46.4222 33.9269 46.357 34.9165C46.2909 35.9283 45.4347 36.9606 44.1169 36.9369C44.0264 36.9353 43.9367 36.9313 43.8478 36.925C43.3699 36.891 42.9916 36.7851 42.7159 36.6081C43.1832 37.0396 43.7573 37.2965 44.3623 37.3392C44.7872 37.3692 45.2096 37.2957 45.6173 37.1195C46.6693 36.665 47.2254 35.6224 46.9702 34.5838C46.7378 33.6368 45.8196 32.9191 44.6681 32.7737L44.669 32.7745Z" fill="white"/>
<path d="M44.9298 32.613C45.5651 31.6423 44.6093 30.4875 43.5721 29.3762C43.2467 29.0276 42.9654 28.7264 42.7844 28.4585L42.6873 28.3131L42.7338 28.1455C44.2978 22.5501 48.3971 18.0794 54.2758 15.5579C55.6001 14.9904 56.9064 14.5628 58.1704 14.1486C60.3313 13.4412 62.3732 12.7733 64.3189 11.4872C67.4837 9.39577 68.6645 5.97559 67.6403 1.99895C65.5152 6.19691 61.9622 7.55565 57.8923 9.11121C55.2992 10.1024 52.3594 11.2264 49.4083 13.2594C46.1677 15.4923 43.9643 18.4817 43.0371 21.9051L42.3187 24.5593L41.5375 24.5087C40.6438 17.4818 36.4311 13.0341 27.4521 9.63764L26.6946 9.35229C22.3311 7.71295 18.5213 6.28069 16.3579 2.08432C15.2554 6.29176 16.7183 9.87081 20.4612 12.0073C22.1329 12.9614 23.8544 13.5147 25.6777 14.1012C28.2399 14.9256 30.8885 15.7777 33.8143 17.8241C38.3108 20.9692 39.9148 23.8985 41.301 28.2048L41.3687 28.4134L39.653 30.2804C38.8294 31.1768 38.681 32.3015 39.2461 33.3678C40.0917 34.9645 41.0181 36.4489 41.9966 37.9982L44.9298 32.6114V32.613Z" fill="white"/>
</g>
<defs>
<clipPath id="clip0_51_6292">
<rect width="52" height="36" fill="white" transform="translate(16 2)"/>
</clipPath>
</defs>
</svg>
