<svg width="84" height="40" viewBox="0 0 84 40" fill="none" xmlns="http://www.w3.org/2000/svg">
<g clip-path="url(#clip0_313_1831)">
<path d="M65.5961 13.4406C65.4551 13.5655 65.2789 13.7015 65.0514 13.8627C63.1783 15.193 60.8012 16.0206 58.2839 16.8972C53.971 18.399 49.5113 19.9514 46.6759 24.2236C45.9469 25.3223 45.668 26.4361 45.8637 27.3869C46.1491 26.919 46.4215 26.4961 46.7656 26.0385L47.0959 25.599L47.4155 26.0456C48.536 27.613 50.2623 28.5117 52.1517 28.5117C53.1906 28.5117 54.2507 28.2374 55.2162 27.7181C56.6653 26.9388 57.6356 25.7436 57.9496 24.3533C58.257 22.9898 57.9039 21.5481 56.9539 20.2952L56.6514 19.8969L59.8325 18.629L60.0209 18.8377C61.7301 20.7371 62.2805 23.1076 61.6126 25.6946C60.9162 28.3916 58.6517 30.6854 55.7038 31.6813C54.5989 32.0544 53.4752 32.2433 52.3629 32.2433C50.8494 32.2433 49.3686 31.9011 47.9431 31.2237C48.5759 31.9034 49.3881 32.433 50.1473 32.8954C51.4129 33.6661 52.9044 34.0732 54.4603 34.0732C56.0162 34.0732 57.475 33.6993 58.8425 32.9926C59.7925 32.5018 60.6292 31.8797 61.4014 31.0893C62.8627 29.5938 63.8739 27.6683 64.3273 25.5207C64.6926 23.7889 64.6111 22.7337 64.6094 22.7203C64.4847 21.1307 64.1862 19.7269 63.67 18.3026C63.2289 17.0829 63.4262 16.132 64.311 15.2191C64.916 14.5939 65.3433 14.0034 65.5945 13.4414L65.5961 13.4406ZM56.702 22.7914L57.2434 22.8499C57.3723 22.8823 57.3494 23.0175 57.2238 23.0127C56.3089 22.9811 55.9876 22.8127 55.6582 23.306C55.5236 23.5067 55.4828 23.8427 55.6802 24.1407L56.5315 25.0267C56.5364 25.2891 55.3858 24.0719 54.5932 24.656C53.927 25.1469 54.8174 26.6842 54.5508 26.655L53.8479 25.5531C53.7247 25.3777 53.2672 25.286 52.9525 25.3935C52.2406 25.6377 52.3996 26.9917 52.2585 26.9633C52.0938 26.9403 52.2691 25.6733 51.7831 25.3389C51.6045 25.2164 51.3134 25.271 51.1617 25.4243L50.1767 26.4187C49.901 26.4582 51.0843 25.2473 50.2134 24.6117C49.2258 23.8909 48.35 25.0172 48.2954 24.7809L49.3914 23.8751C50.5877 22.8862 51.3379 25.8108 54.1194 24.1865C56.1018 23.0285 54.824 20.4715 55.2961 20.8335C55.3328 20.8612 55.4339 21.0951 55.4453 21.2113C55.46 21.3599 55.482 21.5378 55.5016 21.654C55.5872 22.1527 55.8392 22.672 56.702 22.7898V22.7914Z" fill="#FFF9EB"/>
<path d="M29.6084 18.1856L23.5805 15.9423C21.9153 15.3226 20.4231 14.7393 19.0237 13.8722C18.7595 13.7086 18.5597 13.4912 18.3975 13.2549C18.7024 14.0651 19.2806 14.718 19.6068 15.0428C20.5959 16.0269 20.83 16.996 20.3872 18.2828C19.84 19.8763 19.5448 21.2809 19.46 22.7068C19.4576 22.744 19.2121 26.459 20.7778 28.5449L20.8683 28.6698L20.865 28.699C21.9912 30.7083 23.5226 32.1635 25.5417 33.1444C26.7877 33.7499 28.1723 34.07 29.5456 34.07C31.5573 34.07 33.5079 33.3886 35.0368 32.1516L35.1127 32.0908C35.4633 31.807 35.805 31.5311 36.1075 31.2276C34.6764 31.9026 33.2029 32.2441 31.7098 32.2441C30.5714 32.2441 29.4135 32.0433 28.2677 31.6465C25.4854 30.683 23.2894 28.5125 22.5359 25.98C21.7457 23.3249 22.2815 20.79 24.0429 18.844L24.2329 18.6337L27.4123 19.9387L27.1065 20.334C26.1973 21.5101 25.832 22.876 26.0766 24.1794C26.3278 25.5199 27.1954 26.7087 28.5189 27.5261C29.57 28.175 30.741 28.5188 31.9071 28.5188C33.7982 28.5188 35.5302 27.6114 36.658 26.029L37.0045 25.5421L38.1902 27.402C38.3207 26.6921 38.2147 25.9294 37.8706 25.1232C36.5316 21.9891 32.1477 19.1301 29.6067 18.1848L29.6084 18.1856ZM34.1798 25.1026C33.3089 25.7381 34.4921 26.949 34.2165 26.9095L33.2314 25.9152C33.0797 25.7618 32.7886 25.7065 32.61 25.8298C32.124 26.1641 32.2985 27.4312 32.1346 27.4541C31.9936 27.4826 32.1526 26.1286 31.4407 25.8843C31.1251 25.776 30.6684 25.8685 30.5453 26.0432L29.8424 27.1451C29.5757 27.1735 30.4662 25.6369 29.8 25.1461C29.0074 24.5619 27.8568 25.7792 27.8616 25.5168L28.713 24.6307C28.9111 24.3319 28.8695 23.9968 28.735 23.796C28.4056 23.3028 28.0843 23.4712 27.1693 23.5028C27.0437 23.5067 27.0209 23.3724 27.1498 23.3399L27.6912 23.2815C28.554 23.1637 28.8068 22.6444 28.8916 22.1456C28.9111 22.0294 28.9332 21.8524 28.9478 21.703C28.9592 21.5868 29.0604 21.3536 29.0971 21.3252C29.57 20.9623 28.2922 23.5202 30.2738 24.6781C33.0545 26.3025 33.8055 23.3787 35.001 24.3667L36.0969 25.2725C36.0423 25.5081 35.1665 24.3817 34.179 25.1034L34.1798 25.1026Z" fill="#FFF9EB"/>
<path d="M44.6691 32.7745C45.655 32.961 46.4223 33.9269 46.3571 34.9165C46.291 35.9283 45.4348 36.9606 44.117 36.9369C44.0265 36.9353 43.9368 36.9313 43.8479 36.925C43.3701 36.891 42.9917 36.7851 42.7161 36.6081C43.1833 37.0396 43.7574 37.2965 44.3625 37.3392C44.7873 37.3692 45.2097 37.2957 45.6175 37.1195C46.6694 36.665 47.2255 35.6224 46.9703 34.5838C46.7379 33.6368 45.8197 32.9191 44.6683 32.7737L44.6691 32.7745Z" fill="#FFF9EB"/>
<path d="M44.9299 32.613C45.5652 31.6423 44.6095 30.4875 43.5722 29.3762C43.2468 29.0276 42.9655 28.7265 42.7845 28.4585L42.6874 28.3131L42.7339 28.1455C44.298 22.5501 48.3973 18.0794 54.2759 15.5579C55.6002 14.9904 56.9065 14.5628 58.1705 14.1486C60.3315 13.4412 62.3734 12.7733 64.319 11.4872C67.4838 9.39577 68.6646 5.97559 67.6404 1.99895C65.5153 6.19691 61.9624 7.55566 57.8924 9.11122C55.2993 10.1024 52.3596 11.2264 49.4084 13.2594C46.1678 15.4923 43.9644 18.4817 43.0373 21.9051L42.3188 24.5593L41.5376 24.5087C40.6439 17.4818 36.4313 13.0341 27.4523 9.63764L26.6947 9.3523C22.3312 7.71295 18.5214 6.2807 16.358 2.08432C15.2555 6.29176 16.7184 9.87082 20.4614 12.0073C22.133 12.9614 23.8545 13.5147 25.6778 14.1012C28.24 14.9256 30.8886 15.7777 33.8145 17.8241C38.3109 20.9692 39.9149 23.8985 41.3012 28.2048L41.3688 28.4134L39.6531 30.2804C38.8295 31.1768 38.6811 32.3016 39.2462 33.3678C40.0918 34.9645 41.0182 36.4489 41.9967 37.9982L44.9299 32.6114V32.613Z" fill="#FFF9EB"/>
</g>
<defs>
<clipPath id="clip0_313_1831">
<rect width="52" height="36" fill="white" transform="translate(16 2)"/>
</clipPath>
</defs>
</svg>
