<svg width="1440" height="300" viewBox="0 0 1440 300" fill="none" xmlns="http://www.w3.org/2000/svg">
<g clip-path="url(#clip0_37_611)">
<rect width="1440" height="300" fill="white"/>
<g clip-path="url(#clip1_37_611)">
<rect width="320" height="501.068" transform="translate(0 320) rotate(-90)" fill="black"/>
<path d="M0 320L-6.77014e-06 165.117L-8.2068e-06 132.25L-8.92426e-06 115.837L-1.39876e-05 3.05176e-05L501.068 8.61522e-06L501.068 99.4567L501.068 115.792L501.068 132.325L501.068 148.594L501.068 181.469L501.068 214.241L501.068 230.657L501.068 320L0 320Z" fill="black"/>
<path d="M-2.15298e-06 132.25L-2.87044e-06 115.837L-7.93383e-06 0L501.068 -2.19024e-05L501.068 99.4567L501.068 115.792L501.068 132.325L481.216 132.335C481.292 137.695 481.216 143.175 481.208 148.544C479.74 148.357 466.147 148.382 464.713 148.69L461.379 148.667L461.342 165.099L449.388 165.077C447.428 165.063 443.658 164.945 441.835 165.136C441.382 165.755 441.51 166.533 441.514 167.297C441.182 166.247 441.233 166.009 441.341 164.972L401.887 164.991L401.779 165.095L362.073 165.101L362.019 164.957C362.359 160.776 362.046 153.204 362.041 148.76C355.758 148.611 348.592 148.693 342.292 148.727L342.201 148.609L322.506 148.61L322.469 148.808C320.392 148.348 305.734 148.702 302.613 148.715L302.632 165.107L282.805 165.118C282.624 170.493 282.851 176.066 282.709 181.505L262.948 181.477L262.811 181.353C256.247 181.322 249.685 181.332 243.121 181.384C243.274 176.056 243.152 170.328 243.157 164.969L223.254 164.997C223.384 162.124 223.54 152.228 223.17 149.559C223.05 149.336 223.056 148.884 223.035 148.614C210.049 148.44 196.588 148.594 183.565 148.599L183.5 148.741C183.365 154.08 183.471 159.626 183.491 164.98L163.791 164.989L163.681 165.112C163.376 169.765 163.651 176.559 163.671 181.36L124.016 181.337L124.004 164.975L120.301 165.005C119.614 165.447 106.301 165.231 104.312 165.223C104.324 166.724 104.591 177.189 104.08 177.836C103.95 173.738 104.051 169.239 104.038 165.107L84.2298 165.123C84.4901 154.465 84.2405 143.091 84.2307 132.372C72.5633 132.3 58.4373 132.73 47.1172 132.295C46.1327 132.122 45.6343 132.29 44.9415 131.826C44.8448 131.182 44.7905 130.579 44.732 129.933C44.6518 130.6 44.6579 131.546 44.6356 132.238L-2.15298e-06 132.25Z" fill="#F80090"/>
<path d="M104.2 164.969L104.212 148.718C110.638 148.715 117.634 148.83 124.011 148.69L124.032 132.376L143.816 132.346C143.87 143.16 143.974 154.3 143.814 165.108C150.15 165.106 157.427 164.951 163.68 165.112C163.376 169.765 163.651 176.559 163.67 181.36L124.016 181.337L124.004 164.975L120.301 165.005C114.93 164.947 109.545 165.029 104.2 164.969Z" fill="black"/>
<path d="M183.565 148.599C183.551 145.385 183.263 135.428 183.646 132.613C184.353 132.241 184.7 132.356 185.631 132.329C191.22 132.347 197.827 132.217 203.346 132.398C203.381 127.345 203.614 120.934 203.345 115.942C204.935 115.734 208.38 115.817 210.154 115.819L223.145 115.847L223.172 138.597C223.174 140.243 223.298 147.359 223.035 148.614C210.049 148.44 196.588 148.594 183.565 148.599Z" fill="black"/>
<path d="M401.886 164.991C401.901 159.71 401.776 153.958 401.945 148.723L421.643 148.71C421.753 143.262 421.755 137.813 421.645 132.365C428.109 132.365 434.928 132.457 441.363 132.338L441.404 153.998C441.404 157.084 441.612 162.079 441.341 164.972L401.886 164.991Z" fill="black"/>
<path d="M223.253 164.997C223.384 162.124 223.54 152.228 223.17 149.559C223.415 148.814 223.214 148.977 223.836 148.656C236.558 148.901 249.986 148.704 262.794 148.724L262.811 181.353C256.247 181.322 249.685 181.332 243.121 181.384C243.274 176.056 243.152 170.328 243.157 164.969L223.253 164.997Z" fill="black"/>
<path d="M0 132.25L-7.17461e-07 115.837L44.6273 115.847C44.6579 120.209 44.4685 125.686 44.732 129.933C44.6518 130.6 44.6579 131.546 44.6356 132.238L0 132.25Z" fill="black"/>
<path d="M322.506 148.61L322.474 115.839L342.189 115.839C342.248 122.758 342.265 129.677 342.236 136.596C342.233 140.233 342.407 145.052 342.201 148.609L322.506 148.61Z" fill="black"/>
<path d="M481.101 132.271C481.182 126.785 481.169 121.298 481.057 115.812L481.23 115.76L501.068 115.792L501.068 132.325L481.216 132.335L481.101 132.271Z" fill="#F80090"/>
<path d="M183.481 132.17C183.467 128.179 183.142 119.523 183.535 115.883L183.664 115.809C189.048 115.74 197.939 115.576 203.198 115.811L203.345 115.942C203.615 120.934 203.381 127.345 203.346 132.398C197.827 132.217 191.22 132.347 185.631 132.329C184.802 131.983 184.5 132.129 183.481 132.17Z" fill="#F80090"/>
<path d="M481.23 115.76C481.233 110.383 481.145 104.834 481.245 99.4709L501.068 99.4568L501.068 115.792L481.23 115.76Z" fill="black"/>
<path d="M461.364 132.233L461.361 115.835C467.539 115.847 474.994 116.013 481.057 115.812C481.169 121.298 481.182 126.785 481.101 132.271L461.364 132.233Z" fill="black"/>
<path d="M163.746 132.235C163.714 126.769 163.715 121.304 163.749 115.839C168.86 115.837 178.752 115.578 183.535 115.883C183.142 119.523 183.467 128.179 183.481 132.17C177.307 132.392 170.035 132.227 163.746 132.235Z" fill="black"/>
<path d="M183.664 115.808C183.419 114.422 183.515 111.43 183.518 109.89L183.557 99.491L203.295 99.4789L203.322 110.549C203.322 111.563 203.386 114.899 203.198 115.81C197.938 115.576 189.047 115.74 183.664 115.808Z" fill="black"/>
<path d="M163.791 164.989C163.64 159.974 163.597 153.76 163.76 148.732C170.34 148.703 176.92 148.706 183.5 148.741C183.365 154.08 183.471 159.626 183.491 164.98L163.791 164.989Z" fill="black"/>
<path d="M124.035 83.0362L124.037 66.7168L143.837 66.7188L143.837 83.016C137.357 83.1252 130.54 83.0382 124.035 83.0362Z" fill="black"/>
<path d="M203.413 33.7425C203.227 28.614 203.353 22.6668 203.399 17.5221C209.642 17.3826 216.909 17.4251 223.146 17.51L223.175 33.7788C216.588 33.8233 210 33.8112 203.413 33.7425Z" fill="black"/>
<path d="M401.948 132.224C401.73 127.06 401.916 121.053 401.923 115.827C408.397 115.907 415.066 115.839 421.557 115.835L421.565 132.237L401.948 132.224Z" fill="black"/>
<path d="M381.969 115.78L381.969 99.4851L401.74 99.477L401.728 115.764C395.19 115.829 388.518 115.776 381.969 115.78Z" fill="black"/>
<path d="M282.787 115.768L282.78 99.4749L302.461 99.485C302.397 104.876 302.461 110.338 302.471 115.736C296.141 115.891 289.166 115.77 282.787 115.768Z" fill="black"/>
<path d="M421.677 98.2114C421.672 93.1921 421.797 88.1323 421.609 83.1211C424.305 83.115 439.816 82.8785 441.233 83.2929L441.385 83.8407L441.402 99.3859C439.158 99.4102 422.509 99.5901 421.795 99.1595L421.677 98.2114Z" fill="black"/>
<path d="M223.331 99.3718C223.243 94.0068 223.315 88.5084 223.31 83.1333C229.806 83.0605 236.447 83.1111 242.955 83.1009C242.998 88.5367 243.008 93.9704 242.984 99.4042L223.331 99.3718Z" fill="black"/>
<path d="M84.4143 115.764C84.3225 110.393 84.4003 104.874 84.3996 99.4911C90.914 99.4304 97.523 99.481 104.044 99.485L104.091 115.707C98.11 115.952 90.5139 115.77 84.4143 115.764Z" fill="black"/>
<path d="M262.928 148.605L262.99 132.338C269.544 132.395 276.098 132.397 282.651 132.343C282.611 137.759 282.619 143.175 282.675 148.591L262.928 148.605Z" fill="black"/>
<path d="M362.127 83.0262C362.202 77.6188 362.154 72.1406 362.158 66.727L381.839 66.7372C381.939 72.1062 381.854 77.6572 381.871 83.0444L362.127 83.0262Z" fill="black"/>
<path d="M104.061 181.493L104.08 177.836C104.591 177.189 104.324 166.724 104.312 165.223C106.301 165.231 119.614 165.447 120.302 165.005L124.004 164.975L124.016 181.337L163.671 181.36C163.651 176.559 163.376 169.765 163.681 165.112L163.791 164.989L183.491 164.98C183.471 159.626 183.365 154.08 183.5 148.741L183.565 148.599C196.588 148.594 210.049 148.44 223.035 148.614C223.056 148.884 223.05 149.336 223.17 149.559C223.54 152.228 223.384 162.124 223.254 164.997L243.157 164.969C243.152 170.328 243.274 176.056 243.121 181.384C249.685 181.332 256.247 181.322 262.811 181.353L262.948 181.477C262.76 184.982 262.926 189.636 262.928 193.216C262.909 200.244 262.933 207.273 263.002 214.301L243.159 214.292C242.966 219.474 243.138 225.413 243.124 230.653L223.152 230.675L223.158 214.233L243.016 214.244L242.978 181.497C236.385 181.436 229.792 181.431 223.199 181.482C223.118 176.033 223.16 170.531 223.156 165.078C216.646 165.163 209.894 165.084 203.365 165.081L203.379 197.756C198.206 198.082 188.996 197.851 183.473 197.847L183.473 181.498L163.712 181.459C163.631 186.854 163.721 192.402 163.73 197.809C157.462 197.986 150.307 197.85 143.963 197.836L143.913 214.296L123.962 214.302C123.666 203.628 123.931 192.181 123.9 181.422C117.535 181.586 110.512 181.432 104.061 181.493Z" fill="#F80090"/>
<path d="M-2.15044e-06 165.117L-3.58709e-06 132.25L44.6356 132.238C44.6579 131.546 44.6518 130.601 44.732 129.933C44.7905 130.579 44.8448 131.182 44.9415 131.826C45.6343 132.29 46.1327 132.122 47.1172 132.295C46.133 132.293 45.8516 132.256 44.9256 132.475C44.5329 133.498 44.7151 146.796 44.8252 148.604L64.5939 148.614L64.5697 181.492L44.7861 181.474C44.6657 186.82 44.7594 192.408 44.7523 197.774L64.5783 197.734L64.5836 214.3L44.6175 214.314C44.791 209.38 44.7712 202.761 44.5784 197.852L24.7194 197.865C24.7104 187.097 24.4902 175.816 24.7551 165.09L-2.15044e-06 165.117Z" fill="#F80090"/>
<path d="M24.804 164.968L24.8316 148.692C31.2912 148.681 38.1733 148.577 44.5983 148.743C44.6252 149.459 44.6336 150.804 44.7331 151.461C44.4192 153.63 44.6737 162.307 44.6867 164.958C38.4338 165.104 31.0597 165.039 24.804 164.968Z" fill="black"/>
<path d="M461.195 214.304L461.205 181.358C467.762 181.348 474.524 181.269 481.064 181.36C481.309 178.024 481.13 173.168 481.135 169.688C481.179 162.699 481.155 155.71 481.066 148.721C475.664 148.65 470.125 148.695 464.713 148.69C466.147 148.382 479.74 148.357 481.208 148.544C481.216 143.175 481.292 137.695 481.216 132.335L501.068 132.325L501.068 148.594L501.068 181.469L501.068 214.241L501.068 230.657L481.096 230.684C481.287 225.452 481.128 219.535 481.076 214.266C474.448 214.32 467.823 214.333 461.195 214.304Z" fill="#F80090"/>
<path d="M481.218 214.219L481.218 181.457C487.834 181.493 494.452 181.498 501.068 181.469L501.068 214.241C494.511 214.25 487.761 214.325 481.218 214.219Z" fill="black"/>
<path d="M481.208 148.544C481.216 143.175 481.292 137.695 481.216 132.335L501.068 132.325L501.068 148.594C495.409 148.609 486.716 148.851 481.208 148.544Z" fill="black"/>
<path d="M322.44 181.362C322.367 174.428 322.347 167.493 322.384 160.559C322.384 157.507 322.173 151.684 322.469 148.808L322.506 148.61L342.201 148.609L342.292 148.727C348.592 148.693 355.758 148.611 362.041 148.76C362.046 153.204 362.359 160.776 362.019 164.957L362.073 165.101C362.401 169.718 362.129 176.584 362.109 181.356L381.937 181.352L381.959 197.831L362.065 197.873L362.048 181.463L337.208 181.468C332.711 181.472 326.827 181.603 322.44 181.362Z" fill="#F80090"/>
<path d="M342.316 164.982L342.292 148.727C348.592 148.693 355.758 148.611 362.041 148.76C362.046 153.204 362.359 160.776 362.019 164.957C355.667 165.097 348.714 164.981 342.316 164.982Z" fill="black"/>
<path d="M401.73 197.822C401.891 186.96 401.688 175.981 401.779 165.095L401.887 164.991L441.341 164.972C441.233 166.009 441.182 166.247 441.514 167.297C441.558 172.034 441.544 176.771 441.47 181.508L421.692 181.442C421.704 186.722 421.866 192.517 421.592 197.74L441.502 197.732C441.607 202.687 441.698 209.408 441.414 214.29L421.543 214.302L421.552 197.825C414.944 197.852 408.338 197.851 401.73 197.822Z" fill="#F80090"/>
<path d="M282.677 214.294L282.641 197.708C289.019 197.761 296.08 197.849 302.453 197.732C302.461 192.439 302.316 186.605 302.495 181.36C308.937 181.354 316.057 181.217 322.44 181.362C322.486 186.857 322.491 192.352 322.454 197.848C316.101 197.848 308.886 197.985 302.598 197.781L302.617 214.246L322.462 214.223L322.452 230.666L302.463 230.682L302.453 214.302L282.677 214.294Z" fill="#F80090"/>
<path d="M84.2321 230.649L84.2651 197.729C90.6468 197.848 97.8284 197.77 104.213 197.702L104.186 230.654C97.5351 230.684 90.8834 230.682 84.2321 230.649Z" fill="#F80090"/>
<path d="M24.7063 247.047L24.7139 230.604L44.7786 230.596L44.7512 247.046L24.7063 247.047Z" fill="#F80090"/>
<path d="M123.92 261.055L123.925 246.987C129.58 246.979 138.282 246.74 143.696 247.053C144.048 247.468 143.945 248.193 143.943 248.743L143.948 263.441L123.97 263.443L123.92 261.055Z" fill="#F80090"/>
<path d="M282.663 296.308C282.611 290.809 282.597 285.311 282.616 279.813L302.59 279.797L302.6 296.309L282.663 296.308Z" fill="#F80090"/>
<path d="M381.871 230.674L381.871 214.237L401.906 214.234C401.789 219.604 401.901 225.258 401.882 230.657L381.871 230.674Z" fill="#F80090"/>
<path d="M441.402 247.026L441.392 230.611C448.04 230.584 454.687 230.59 461.335 230.63C461.386 236.1 461.386 241.57 461.332 247.04L441.402 247.026Z" fill="#F80090"/>
<path d="M361.98 263.45C362.048 257.962 362.075 252.473 362.058 246.985L381.939 246.985L381.91 263.429L361.98 263.45Z" fill="#F80090"/>
<path d="M163.633 247.043L163.636 230.611L183.55 230.602C183.447 236.003 183.537 241.611 183.531 247.03L163.633 247.043Z" fill="#F80090"/>
</g>
<g clip-path="url(#clip2_37_611)">
<rect width="320" height="501.068" transform="translate(500.068 320) rotate(-90)" fill="black"/>
<path d="M500.068 320L500.068 165.117L500.068 132.25L500.068 115.837L500.068 3.05176e-05L1001.14 8.61522e-06L1001.14 99.4567L1001.14 115.792L1001.14 132.325L1001.14 148.594L1001.14 181.469L1001.14 214.241L1001.14 230.657L1001.14 320L500.068 320Z" fill="black"/>
<path d="M500.068 132.25L500.068 115.837L500.068 0L1001.14 -2.19024e-05L1001.14 99.4567L1001.14 115.792L1001.14 132.325L981.284 132.335C981.359 137.695 981.284 143.175 981.276 148.544C979.808 148.357 966.215 148.382 964.781 148.69L961.446 148.667L961.41 165.099L949.456 165.077C947.496 165.063 943.726 164.945 941.903 165.136C941.45 165.755 941.577 166.533 941.582 167.297C941.25 166.247 941.301 166.009 941.409 164.972L901.954 164.991L901.847 165.095L862.141 165.101L862.087 164.957C862.427 160.776 862.114 153.204 862.109 148.76C855.826 148.611 848.66 148.693 842.36 148.727L842.269 148.609L822.574 148.61L822.537 148.808C820.46 148.348 805.802 148.702 802.68 148.715L802.7 165.107L782.873 165.118C782.692 170.493 782.919 176.066 782.777 181.505L763.016 181.477L762.879 181.353C756.315 181.322 749.753 181.332 743.189 181.384C743.342 176.056 743.22 170.328 743.225 164.969L723.321 164.997C723.452 162.124 723.608 152.228 723.237 149.559C723.118 149.336 723.123 148.884 723.103 148.614C710.117 148.44 696.656 148.594 683.633 148.599L683.568 148.741C683.433 154.08 683.539 159.626 683.559 164.98L663.859 164.989L663.748 165.112C663.444 169.765 663.719 176.559 663.738 181.36L624.084 181.337L624.072 164.975L620.369 165.005C619.681 165.447 606.369 165.231 604.38 165.223C604.392 166.724 604.658 177.189 604.148 177.836C604.018 173.738 604.119 169.239 604.106 165.107L584.298 165.123C584.558 154.465 584.308 143.091 584.299 132.372C572.631 132.3 558.505 132.73 547.185 132.295C546.201 132.122 545.702 132.29 545.009 131.826C544.913 131.182 544.858 130.579 544.8 129.933C544.72 130.6 544.726 131.546 544.704 132.238L500.068 132.25Z" fill="#F80090"/>
<path d="M604.268 164.969L604.28 148.718C610.706 148.715 617.702 148.83 624.079 148.69L624.1 132.376L643.883 132.346C643.938 143.16 644.042 154.3 643.882 165.108C650.218 165.106 657.495 164.951 663.748 165.112C663.443 169.765 663.718 176.559 663.738 181.36L624.084 181.337L624.072 164.975L620.369 165.005C614.998 164.947 609.612 165.029 604.268 164.969Z" fill="black"/>
<path d="M683.633 148.599C683.619 145.385 683.331 135.428 683.713 132.613C684.421 132.241 684.768 132.356 685.698 132.329C691.287 132.347 697.894 132.217 703.413 132.398C703.448 127.345 703.682 120.934 703.412 115.942C705.003 115.734 708.447 115.817 710.222 115.819L723.213 115.847L723.24 138.597C723.241 140.243 723.366 147.359 723.103 148.614C710.117 148.44 696.655 148.594 683.633 148.599Z" fill="black"/>
<path d="M901.954 164.991C901.969 159.71 901.844 153.958 902.013 148.723L921.711 148.71C921.821 143.262 921.823 137.813 921.713 132.365C928.177 132.365 934.996 132.457 941.43 132.338L941.472 153.998C941.472 157.084 941.68 162.079 941.408 164.972L901.954 164.991Z" fill="black"/>
<path d="M723.321 164.997C723.451 162.124 723.608 152.228 723.237 149.559C723.483 148.814 723.281 148.977 723.904 148.656C736.626 148.901 750.053 148.704 762.861 148.724L762.878 181.353C756.314 181.322 749.752 181.332 743.189 181.384C743.342 176.056 743.219 170.328 743.225 164.969L723.321 164.997Z" fill="black"/>
<path d="M500.068 132.25L500.068 115.837L544.695 115.847C544.726 120.209 544.536 125.686 544.8 129.933C544.72 130.6 544.726 131.546 544.704 132.238L500.068 132.25Z" fill="black"/>
<path d="M822.574 148.61L822.542 115.839L842.257 115.839C842.315 122.758 842.332 129.677 842.303 136.596C842.301 140.233 842.474 145.052 842.269 148.609L822.574 148.61Z" fill="black"/>
<path d="M981.169 132.271C981.249 126.785 981.237 121.298 981.125 115.812L981.298 115.76L1001.14 115.792L1001.14 132.325L981.284 132.335L981.169 132.271Z" fill="#F80090"/>
<path d="M683.549 132.17C683.535 128.179 683.209 119.523 683.602 115.883L683.732 115.809C689.115 115.74 698.006 115.576 703.265 115.811L703.412 115.942C703.682 120.934 703.449 127.345 703.414 132.398C697.894 132.217 691.287 132.347 685.699 132.329C684.869 131.983 684.568 132.129 683.549 132.17Z" fill="#F80090"/>
<path d="M981.298 115.76C981.301 110.383 981.212 104.834 981.313 99.4709L1001.14 99.4568L1001.14 115.792L981.298 115.76Z" fill="black"/>
<path d="M961.432 132.233L961.429 115.835C967.607 115.847 975.062 116.013 981.124 115.812C981.237 121.298 981.249 126.785 981.169 132.271L961.432 132.233Z" fill="black"/>
<path d="M663.814 132.235C663.782 126.769 663.783 121.304 663.817 115.839C668.928 115.837 678.82 115.578 683.602 115.883C683.21 119.523 683.535 128.179 683.549 132.17C677.375 132.392 670.103 132.227 663.814 132.235Z" fill="black"/>
<path d="M683.732 115.808C683.486 114.422 683.583 111.43 683.586 109.89L683.625 99.491L703.363 99.4789L703.389 110.549C703.39 111.563 703.454 114.899 703.265 115.81C698.006 115.576 689.115 115.74 683.732 115.808Z" fill="black"/>
<path d="M663.859 164.989C663.708 159.974 663.665 153.76 663.828 148.732C670.408 148.703 676.988 148.706 683.568 148.741C683.433 154.08 683.539 159.626 683.559 164.98L663.859 164.989Z" fill="black"/>
<path d="M624.103 83.0362L624.105 66.7168L643.905 66.7188L643.905 83.016C637.425 83.1252 630.608 83.0382 624.103 83.0362Z" fill="black"/>
<path d="M703.481 33.7425C703.295 28.614 703.421 22.6668 703.467 17.5221C709.71 17.3826 716.977 17.4251 723.214 17.51L723.243 33.7788C716.656 33.8233 710.068 33.8112 703.481 33.7425Z" fill="black"/>
<path d="M902.015 132.224C901.798 127.06 901.984 121.053 901.991 115.827C908.465 115.907 915.134 115.839 921.625 115.835L921.632 132.237L902.015 132.224Z" fill="black"/>
<path d="M882.036 115.78L882.036 99.4851L901.808 99.477L901.795 115.764C895.258 115.829 888.586 115.776 882.036 115.78Z" fill="black"/>
<path d="M782.855 115.768L782.848 99.4749L802.529 99.485C802.465 104.876 802.529 110.338 802.538 115.736C796.209 115.891 789.234 115.77 782.855 115.768Z" fill="black"/>
<path d="M921.745 98.2114C921.74 93.1921 921.865 88.1323 921.677 83.1211C924.373 83.115 939.884 82.8785 941.301 83.2929L941.453 83.8407L941.47 99.3859C939.226 99.4102 922.577 99.5901 921.862 99.1595L921.745 98.2114Z" fill="black"/>
<path d="M723.399 99.3718C723.311 94.0068 723.383 88.5084 723.378 83.1333C729.874 83.0605 736.515 83.1111 743.023 83.1009C743.066 88.5367 743.076 93.9704 743.052 99.4042L723.399 99.3718Z" fill="black"/>
<path d="M584.482 115.764C584.39 110.393 584.468 104.874 584.467 99.4911C590.982 99.4304 597.591 99.481 604.112 99.485L604.159 115.707C598.178 115.952 590.582 115.77 584.482 115.764Z" fill="black"/>
<path d="M762.996 148.605L763.057 132.338C769.612 132.395 776.166 132.397 782.718 132.343C782.679 137.759 782.687 143.175 782.743 148.591L762.996 148.605Z" fill="black"/>
<path d="M862.194 83.0262C862.27 77.6188 862.221 72.1406 862.226 66.727L881.907 66.7372C882.007 72.1062 881.921 77.6572 881.939 83.0444L862.194 83.0262Z" fill="black"/>
<path d="M604.129 181.493L604.148 177.836C604.658 177.189 604.392 166.724 604.38 165.223C606.368 165.231 619.681 165.447 620.369 165.005L624.072 164.975L624.084 181.337L663.738 181.36C663.718 176.559 663.443 169.765 663.748 165.112L663.858 164.989L683.559 164.98C683.539 159.626 683.433 154.08 683.568 148.741L683.633 148.599C696.656 148.594 710.117 148.44 723.103 148.614C723.123 148.884 723.118 149.336 723.237 149.559C723.608 152.228 723.451 162.124 723.321 164.997L743.225 164.969C743.22 170.328 743.342 176.056 743.189 181.384C749.753 181.332 756.314 181.322 762.879 181.353L763.016 181.477C762.827 184.982 762.994 189.636 762.996 193.216C762.977 200.244 763.001 207.273 763.069 214.301L743.227 214.292C743.033 219.474 743.205 225.413 743.191 230.653L723.219 230.675L723.226 214.233L743.084 214.244L743.046 181.497C736.453 181.436 729.859 181.431 723.266 181.482C723.186 176.033 723.228 170.531 723.223 165.078C716.714 165.163 709.961 165.084 703.432 165.081L703.447 197.756C698.274 198.082 689.064 197.851 683.541 197.847L683.541 181.498L663.78 181.459C663.698 186.854 663.788 192.402 663.798 197.809C657.529 197.986 650.374 197.85 644.031 197.836L643.981 214.296L624.029 214.302C623.733 203.628 623.998 192.181 623.967 181.422C617.603 181.586 610.58 181.432 604.129 181.493Z" fill="#F80090"/>
<path d="M500.068 165.117L500.068 132.25L544.703 132.238C544.726 131.546 544.72 130.601 544.8 129.933C544.858 130.579 544.913 131.182 545.009 131.826C545.702 132.29 546.201 132.122 547.185 132.295C546.201 132.293 545.919 132.256 544.993 132.475C544.601 133.498 544.783 146.796 544.893 148.604L564.662 148.614L564.638 181.492L544.854 181.474C544.734 186.82 544.827 192.408 544.82 197.774L564.646 197.734L564.652 214.3L544.685 214.314C544.859 209.38 544.839 202.761 544.646 197.852L524.787 197.865C524.778 187.097 524.558 175.816 524.823 165.09L500.068 165.117Z" fill="#F80090"/>
<path d="M524.872 164.968L524.899 148.692C531.359 148.681 538.241 148.577 544.666 148.743C544.693 149.459 544.701 150.804 544.801 151.461C544.487 153.63 544.741 162.307 544.754 164.958C538.502 165.104 531.127 165.039 524.872 164.968Z" fill="black"/>
<path d="M961.263 214.304L961.272 181.358C967.829 181.348 974.592 181.269 981.132 181.36C981.376 178.024 981.198 173.168 981.203 169.688C981.247 162.699 981.222 155.71 981.134 148.721C975.732 148.65 970.193 148.695 964.781 148.69C966.215 148.382 979.808 148.357 981.276 148.544C981.283 143.175 981.359 137.695 981.283 132.335L1001.14 132.325L1001.14 148.594L1001.14 181.469L1001.14 214.241L1001.14 230.657L981.163 230.684C981.354 225.452 981.195 219.535 981.144 214.266C974.516 214.32 967.891 214.333 961.263 214.304Z" fill="#F80090"/>
<path d="M981.286 214.219L981.286 181.457C987.902 181.493 994.52 181.498 1001.14 181.469L1001.14 214.241C994.579 214.25 987.828 214.325 981.286 214.219Z" fill="black"/>
<path d="M981.276 148.544C981.283 143.175 981.359 137.695 981.283 132.335L1001.14 132.325L1001.14 148.594C995.476 148.609 986.783 148.851 981.276 148.544Z" fill="black"/>
<path d="M822.508 181.362C822.434 174.428 822.415 167.493 822.452 160.559C822.452 157.507 822.241 151.684 822.537 148.808L822.574 148.61L842.269 148.609L842.36 148.727C848.66 148.693 855.826 148.611 862.109 148.76C862.114 153.204 862.427 160.776 862.087 164.957L862.141 165.101C862.468 169.718 862.197 176.584 862.177 181.356L882.005 181.352L882.027 197.831L862.133 197.873L862.116 181.463L837.276 181.468C832.779 181.472 826.895 181.603 822.508 181.362Z" fill="#F80090"/>
<path d="M842.384 164.982L842.359 148.727C848.66 148.693 855.826 148.611 862.109 148.76C862.113 153.204 862.427 160.776 862.087 164.957C855.735 165.097 848.782 164.981 842.384 164.982Z" fill="black"/>
<path d="M901.798 197.822C901.959 186.96 901.756 175.981 901.847 165.095L901.954 164.991L941.408 164.972C941.301 166.009 941.249 166.247 941.582 167.297C941.626 172.034 941.611 176.771 941.538 181.508L921.76 181.442C921.772 186.722 921.933 192.517 921.659 197.74L941.57 197.732C941.675 202.687 941.766 209.408 941.482 214.29L921.61 214.302L921.62 197.825C915.012 197.852 908.406 197.851 901.798 197.822Z" fill="#F80090"/>
<path d="M782.745 214.294L782.708 197.708C789.087 197.761 796.148 197.849 802.521 197.732C802.529 192.439 802.384 186.605 802.563 181.36C809.005 181.354 816.124 181.217 822.508 181.362C822.554 186.857 822.559 192.352 822.522 197.848C816.168 197.848 808.953 197.985 802.666 197.781L802.685 214.246L822.53 214.223L822.52 230.666L802.531 230.682L802.521 214.302L782.745 214.294Z" fill="#F80090"/>
<path d="M584.3 230.649L584.333 197.729C590.715 197.848 597.896 197.77 604.28 197.702L604.254 230.654C597.603 230.684 590.951 230.682 584.3 230.649Z" fill="#F80090"/>
<path d="M524.774 247.047L524.781 230.604L544.846 230.596L544.819 247.046L524.774 247.047Z" fill="#F80090"/>
<path d="M623.987 261.055L623.992 246.987C629.647 246.979 638.35 246.74 643.763 247.053C644.116 247.468 644.013 248.193 644.011 248.743L644.015 263.441L624.038 263.443L623.987 261.055Z" fill="#F80090"/>
<path d="M782.73 296.308C782.679 290.809 782.664 285.311 782.684 279.813L802.658 279.797L802.668 296.309L782.73 296.308Z" fill="#F80090"/>
<path d="M881.939 230.674L881.939 214.237L901.974 214.234C901.857 219.604 901.969 225.258 901.949 230.657L881.939 230.674Z" fill="#F80090"/>
<path d="M941.47 247.026L941.46 230.611C948.107 230.584 954.755 230.59 961.402 230.63C961.453 236.1 961.453 241.57 961.4 247.04L941.47 247.026Z" fill="#F80090"/>
<path d="M862.047 263.45C862.116 257.962 862.143 252.473 862.126 246.985L882.007 246.985L881.978 263.429L862.047 263.45Z" fill="#F80090"/>
<path d="M663.7 247.043L663.704 230.611L683.618 230.602C683.515 236.003 683.604 241.611 683.599 247.03L663.7 247.043Z" fill="#F80090"/>
</g>
<g clip-path="url(#clip3_37_611)">
<rect width="320" height="501.068" transform="translate(1000.14 320) rotate(-90)" fill="black"/>
<path d="M1000.14 320L1000.14 165.117L1000.14 132.25L1000.14 115.837L1000.14 3.05176e-05L1501.2 8.61522e-06L1501.2 99.4567L1501.2 115.792L1501.2 132.325L1501.2 148.594L1501.2 181.469L1501.2 214.241L1501.2 230.657L1501.2 320L1000.14 320Z" fill="black"/>
<path d="M1000.14 132.25L1000.14 115.837L1000.14 0.00012207L1501.2 0.000100168L1501.2 99.4568L1501.2 115.792L1501.2 132.325L1481.35 132.335C1481.43 137.695 1481.35 143.175 1481.34 148.544C1479.88 148.357 1466.28 148.382 1464.85 148.69L1461.51 148.667L1461.48 165.099L1449.52 165.077C1447.56 165.063 1443.79 164.945 1441.97 165.136C1441.52 165.755 1441.64 166.533 1441.65 167.297C1441.32 166.247 1441.37 166.009 1441.48 164.972L1402.02 164.991L1401.91 165.095L1362.21 165.101L1362.15 164.957C1362.49 160.776 1362.18 153.204 1362.18 148.76C1355.89 148.611 1348.73 148.693 1342.43 148.727L1342.34 148.609L1322.64 148.61L1322.6 148.808C1320.53 148.348 1305.87 148.702 1302.75 148.715L1302.77 165.108L1282.94 165.118C1282.76 170.493 1282.99 176.066 1282.84 181.505L1263.08 181.477L1262.95 181.353C1256.38 181.322 1249.82 181.332 1243.26 181.384C1243.41 176.056 1243.29 170.328 1243.29 164.969L1223.39 164.997C1223.52 162.124 1223.68 152.228 1223.3 149.559C1223.19 149.337 1223.19 148.885 1223.17 148.614C1210.18 148.44 1196.72 148.595 1183.7 148.599L1183.64 148.741C1183.5 154.08 1183.61 159.626 1183.63 164.98L1163.93 164.989L1163.82 165.112C1163.51 169.765 1163.79 176.559 1163.81 181.36L1124.15 181.337L1124.14 164.975L1120.44 165.005C1119.75 165.447 1106.44 165.231 1104.45 165.223C1104.46 166.725 1104.73 177.189 1104.22 177.836C1104.09 173.738 1104.19 169.239 1104.17 165.108L1084.37 165.124C1084.63 154.465 1084.38 143.091 1084.37 132.372C1072.7 132.3 1058.57 132.73 1047.25 132.295C1046.27 132.122 1045.77 132.29 1045.08 131.826C1044.98 131.182 1044.93 130.579 1044.87 129.933C1044.79 130.601 1044.79 131.546 1044.77 132.238L1000.14 132.25Z" fill="#F80090"/>
<path d="M1104.34 164.969L1104.35 148.718C1110.77 148.715 1117.77 148.83 1124.15 148.69L1124.17 132.376L1143.95 132.346C1144.01 143.16 1144.11 154.3 1143.95 165.108C1150.29 165.106 1157.56 164.951 1163.82 165.112C1163.51 169.765 1163.79 176.559 1163.81 181.36L1124.15 181.337L1124.14 164.975L1120.44 165.005C1115.07 164.947 1109.68 165.029 1104.34 164.969Z" fill="black"/>
<path d="M1183.7 148.599C1183.69 145.385 1183.4 135.428 1183.78 132.613C1184.49 132.241 1184.84 132.356 1185.77 132.329C1191.35 132.347 1197.96 132.217 1203.48 132.398C1203.52 127.345 1203.75 120.934 1203.48 115.942C1205.07 115.734 1208.51 115.817 1210.29 115.819L1223.28 115.847L1223.31 138.597C1223.31 140.243 1223.43 147.359 1223.17 148.614C1210.18 148.44 1196.72 148.594 1183.7 148.599Z" fill="black"/>
<path d="M1402.02 164.991C1402.04 159.71 1401.91 153.958 1402.08 148.723L1421.78 148.71C1421.89 143.262 1421.89 137.813 1421.78 132.365C1428.24 132.365 1435.06 132.457 1441.5 132.338L1441.54 153.998C1441.54 157.084 1441.75 162.079 1441.48 164.972L1402.02 164.991Z" fill="black"/>
<path d="M1223.39 164.997C1223.52 162.124 1223.68 152.228 1223.3 149.559C1223.55 148.814 1223.35 148.977 1223.97 148.656C1236.69 148.901 1250.12 148.704 1262.93 148.724L1262.95 181.353C1256.38 181.322 1249.82 181.332 1243.26 181.384C1243.41 176.056 1243.29 170.328 1243.29 164.969L1223.39 164.997Z" fill="black"/>
<path d="M1000.14 132.25L1000.14 115.837L1044.76 115.847C1044.79 120.209 1044.6 125.686 1044.87 129.933C1044.79 130.6 1044.79 131.546 1044.77 132.238L1000.14 132.25Z" fill="black"/>
<path d="M1322.64 148.61L1322.61 115.839L1342.32 115.839C1342.38 122.758 1342.4 129.677 1342.37 136.596C1342.37 140.233 1342.54 145.052 1342.34 148.609L1322.64 148.61Z" fill="black"/>
<path d="M1183.62 132.17C1183.6 128.179 1183.28 119.523 1183.67 115.883L1183.8 115.809C1189.18 115.74 1198.07 115.576 1203.33 115.811L1203.48 115.942C1203.75 120.934 1203.52 127.345 1203.48 132.398C1197.96 132.217 1191.36 132.347 1185.77 132.329C1184.94 131.983 1184.64 132.129 1183.62 132.17Z" fill="#F80090"/>
<path d="M1163.88 132.235C1163.85 126.769 1163.85 121.304 1163.88 115.839C1169 115.837 1178.89 115.578 1183.67 115.883C1183.28 119.523 1183.6 128.179 1183.62 132.17C1177.44 132.392 1170.17 132.227 1163.88 132.235Z" fill="black"/>
<path d="M1183.8 115.808C1183.55 114.422 1183.65 111.43 1183.65 109.89L1183.69 99.491L1203.43 99.4789L1203.46 110.549C1203.46 111.563 1203.52 114.899 1203.33 115.81C1198.07 115.576 1189.18 115.74 1183.8 115.808Z" fill="black"/>
<path d="M1163.93 164.989C1163.78 159.974 1163.73 153.76 1163.9 148.732C1170.48 148.703 1177.06 148.706 1183.64 148.741C1183.5 154.08 1183.61 159.626 1183.63 164.98L1163.93 164.989Z" fill="black"/>
<path d="M1124.17 83.0362L1124.17 66.7168L1143.97 66.7188L1143.97 83.016C1137.49 83.1252 1130.68 83.0382 1124.17 83.0362Z" fill="black"/>
<path d="M1203.55 33.7425C1203.36 28.614 1203.49 22.6668 1203.53 17.5221C1209.78 17.3826 1217.04 17.4251 1223.28 17.51L1223.31 33.7788C1216.72 33.8233 1210.14 33.8112 1203.55 33.7425Z" fill="black"/>
<path d="M1402.08 132.224C1401.87 127.06 1402.05 121.053 1402.06 115.827C1408.53 115.907 1415.2 115.839 1421.69 115.835L1421.7 132.237L1402.08 132.224Z" fill="black"/>
<path d="M1382.1 115.78L1382.1 99.4851L1401.87 99.477L1401.86 115.764C1395.33 115.829 1388.65 115.776 1382.1 115.78Z" fill="black"/>
<path d="M1282.92 115.768L1282.92 99.4749L1302.6 99.485C1302.53 104.876 1302.6 110.338 1302.61 115.736C1296.28 115.891 1289.3 115.77 1282.92 115.768Z" fill="black"/>
<path d="M1421.81 98.2114C1421.81 93.1921 1421.93 88.1323 1421.74 83.1211C1424.44 83.115 1439.95 82.8785 1441.37 83.2929L1441.52 83.8407L1441.54 99.3859C1439.29 99.4102 1422.64 99.5901 1421.93 99.1595L1421.81 98.2114Z" fill="black"/>
<path d="M1223.47 99.3718C1223.38 94.0068 1223.45 88.5084 1223.45 83.1333C1229.94 83.0605 1236.58 83.1111 1243.09 83.1009C1243.13 88.5367 1243.14 93.9704 1243.12 99.4042L1223.47 99.3718Z" fill="black"/>
<path d="M1084.55 115.764C1084.46 110.393 1084.54 104.874 1084.53 99.4911C1091.05 99.4304 1097.66 99.481 1104.18 99.485L1104.23 115.707C1098.25 115.952 1090.65 115.77 1084.55 115.764Z" fill="black"/>
<path d="M1263.06 148.605L1263.12 132.338C1269.68 132.395 1276.23 132.397 1282.79 132.343C1282.75 137.759 1282.75 143.175 1282.81 148.591L1263.06 148.605Z" fill="black"/>
<path d="M1362.26 83.0262C1362.34 77.6188 1362.29 72.1406 1362.29 66.727L1381.97 66.7372C1382.07 72.1062 1381.99 77.6572 1382.01 83.0444L1362.26 83.0262Z" fill="black"/>
<path d="M1104.2 181.493L1104.22 177.836C1104.73 177.189 1104.46 166.724 1104.45 165.223C1106.44 165.231 1119.75 165.447 1120.44 165.005L1124.14 164.975L1124.15 181.337L1163.81 181.36C1163.79 176.559 1163.51 169.765 1163.82 165.112L1163.93 164.989L1183.63 164.98C1183.61 159.626 1183.5 154.08 1183.64 148.741L1183.7 148.599C1196.72 148.594 1210.18 148.44 1223.17 148.614C1223.19 148.884 1223.19 149.336 1223.3 149.559C1223.68 152.228 1223.52 162.124 1223.39 164.997L1243.29 164.969C1243.29 170.328 1243.41 176.056 1243.26 181.384C1249.82 181.332 1256.38 181.322 1262.95 181.353L1263.08 181.477C1262.89 184.982 1263.06 189.636 1263.06 193.216C1263.04 200.244 1263.07 207.273 1263.14 214.301L1243.29 214.292C1243.1 219.474 1243.27 225.413 1243.26 230.653L1223.29 230.675L1223.29 214.233L1243.15 214.244L1243.11 181.497C1236.52 181.436 1229.93 181.431 1223.33 181.482C1223.25 176.033 1223.3 170.531 1223.29 165.078C1216.78 165.163 1210.03 165.084 1203.5 165.081L1203.51 197.756C1198.34 198.082 1189.13 197.851 1183.61 197.847L1183.61 181.498L1163.85 181.459C1163.77 186.854 1163.86 192.402 1163.87 197.809C1157.6 197.986 1150.44 197.85 1144.1 197.836L1144.05 214.296L1124.1 214.302C1123.8 203.628 1124.07 192.181 1124.03 181.422C1117.67 181.586 1110.65 181.432 1104.2 181.493Z" fill="#F80090"/>
<path d="M1000.14 165.117L1000.14 132.25L1044.77 132.238C1044.79 131.546 1044.79 130.601 1044.87 129.933C1044.93 130.579 1044.98 131.182 1045.08 131.826C1045.77 132.29 1046.27 132.122 1047.25 132.295C1046.27 132.293 1045.99 132.256 1045.06 132.475C1044.67 133.498 1044.85 146.796 1044.96 148.604L1064.73 148.614L1064.7 181.492L1044.92 181.474C1044.8 186.82 1044.89 192.408 1044.89 197.774L1064.71 197.734L1064.72 214.3L1044.75 214.314C1044.93 209.38 1044.91 202.761 1044.71 197.852L1024.85 197.865C1024.85 187.097 1024.63 175.816 1024.89 165.09L1000.14 165.117Z" fill="#F80090"/>
<path d="M1024.94 164.968L1024.97 148.692C1031.43 148.681 1038.31 148.577 1044.73 148.743C1044.76 149.459 1044.77 150.804 1044.87 151.461C1044.55 153.63 1044.81 162.307 1044.82 164.958C1038.57 165.104 1031.19 165.039 1024.94 164.968Z" fill="black"/>
<path d="M1322.58 181.362C1322.5 174.428 1322.48 167.493 1322.52 160.559C1322.52 157.507 1322.31 151.684 1322.6 148.808L1322.64 148.61L1342.34 148.609L1342.43 148.727C1348.73 148.693 1355.89 148.611 1362.18 148.76C1362.18 153.204 1362.49 160.776 1362.15 164.957L1362.21 165.101C1362.54 169.718 1362.26 176.584 1362.24 181.356L1382.07 181.352L1382.09 197.831L1362.2 197.873L1362.18 181.463L1337.34 181.468C1332.85 181.472 1326.96 181.603 1322.58 181.362Z" fill="#F80090"/>
<path d="M1342.45 164.982L1342.43 148.727C1348.73 148.693 1355.89 148.611 1362.18 148.76C1362.18 153.204 1362.49 160.776 1362.15 164.957C1355.8 165.097 1348.85 164.981 1342.45 164.982Z" fill="black"/>
<path d="M1401.86 197.822C1402.03 186.96 1401.82 175.981 1401.91 165.095L1402.02 164.991L1441.48 164.972C1441.37 166.009 1441.32 166.247 1441.65 167.297C1441.69 172.034 1441.68 176.771 1441.61 181.508L1421.83 181.442C1421.84 186.722 1422 192.517 1421.73 197.74L1441.64 197.732C1441.74 202.687 1441.83 209.408 1441.55 214.29L1421.68 214.302L1421.69 197.825C1415.08 197.852 1408.47 197.851 1401.86 197.822Z" fill="#F80090"/>
<path d="M1282.81 214.294L1282.78 197.708C1289.15 197.761 1296.22 197.849 1302.59 197.732C1302.6 192.439 1302.45 186.605 1302.63 181.36C1309.07 181.354 1316.19 181.217 1322.58 181.362C1322.62 186.857 1322.63 192.352 1322.59 197.848C1316.24 197.848 1309.02 197.985 1302.73 197.781L1302.75 214.246L1322.6 214.223L1322.59 230.666L1302.6 230.682L1302.59 214.302L1282.81 214.294Z" fill="#F80090"/>
<path d="M1084.37 230.649L1084.4 197.729C1090.78 197.848 1097.96 197.77 1104.35 197.702L1104.32 230.654C1097.67 230.684 1091.02 230.682 1084.37 230.649Z" fill="#F80090"/>
<path d="M1024.84 247.047L1024.85 230.604L1044.91 230.596L1044.89 247.046L1024.84 247.047Z" fill="#F80090"/>
<path d="M1124.05 261.055L1124.06 246.987C1129.71 246.979 1138.42 246.74 1143.83 247.053C1144.18 247.468 1144.08 248.193 1144.08 248.743L1144.08 263.441L1124.11 263.443L1124.05 261.055Z" fill="#F80090"/>
<path d="M1282.8 296.308C1282.75 290.809 1282.73 285.311 1282.75 279.813L1302.73 279.797L1302.74 296.309L1282.8 296.308Z" fill="#F80090"/>
<path d="M1382.01 230.674L1382.01 214.237L1402.04 214.234C1401.92 219.604 1402.04 225.258 1402.02 230.657L1382.01 230.674Z" fill="#F80090"/>
<path d="M1362.11 263.45C1362.18 257.962 1362.21 252.473 1362.19 246.985L1382.07 246.985L1382.04 263.429L1362.11 263.45Z" fill="#F80090"/>
<path d="M1163.77 247.043L1163.77 230.611L1183.69 230.602C1183.58 236.003 1183.67 241.611 1183.67 247.03L1163.77 247.043Z" fill="#F80090"/>
</g>
</g>
<defs>
<clipPath id="clip0_37_611">
<rect width="1440" height="300" fill="white"/>
</clipPath>
<clipPath id="clip1_37_611">
<rect width="320" height="501.068" fill="white" transform="translate(0 320) rotate(-90)"/>
</clipPath>
<clipPath id="clip2_37_611">
<rect width="320" height="501.068" fill="white" transform="translate(500.068 320) rotate(-90)"/>
</clipPath>
<clipPath id="clip3_37_611">
<rect width="320" height="501.068" fill="white" transform="translate(1000.14 320) rotate(-90)"/>
</clipPath>
</defs>
</svg>
