<svg width="45" height="45" viewBox="0 0 45 45" fill="none" xmlns="http://www.w3.org/2000/svg">
<g clip-path="url(#clip0_553_55)">
<path d="M13.6278 19.9356C13.671 19.3963 13.9159 18.8932 14.3135 18.5263C14.7111 18.1594 15.2323 17.9557 15.7733 17.9558H28.7475C29.2885 17.9557 29.8097 18.1594 30.2073 18.5263C30.6049 18.8932 30.8498 19.3963 30.893 19.9356L31.7571 30.6955C31.7808 30.9916 31.743 31.2894 31.6461 31.5702C31.5491 31.851 31.395 32.1086 31.1936 32.327C30.9921 32.5453 30.7477 32.7195 30.4756 32.8388C30.2035 32.958 29.9097 33.0195 29.6126 33.0196H14.9082C14.6111 33.0195 14.3173 32.958 14.0452 32.8388C13.7731 32.7195 13.5287 32.5453 13.3272 32.327C13.1258 32.1086 12.9717 31.851 12.8747 31.5702C12.7778 31.2894 12.74 30.9916 12.7637 30.6955L13.6278 19.9356Z" stroke="#F80090" stroke-width="2.58196" stroke-linecap="round" stroke-linejoin="round"/>
<path d="M26.5649 21.1839V15.8039C26.5649 14.6625 26.1115 13.5677 25.3043 12.7606C24.4972 11.9535 23.4025 11.5 22.261 11.5C21.1195 11.5 20.0248 11.9535 19.2176 12.7606C18.4105 13.5677 17.957 14.6625 17.957 15.8039V21.1839" stroke="#F80090" stroke-width="2.58196" stroke-linecap="round" stroke-linejoin="round"/>
</g>
<defs>
<clipPath id="clip0_553_55">
<rect width="24.52" height="24.52" fill="white" transform="translate(10 10)"/>
</clipPath>
</defs>
</svg>
