<svg width="49" height="28" viewBox="0 0 49 28" fill="none" xmlns="http://www.w3.org/2000/svg">
<rect x="0.5" y="0.5" width="48" height="27" rx="3.5" fill="white"/>
<rect x="0.5" y="0.5" width="48" height="27" rx="3.5" stroke="#EBEBEB"/>
<g clip-path="url(#clip0_356_208)">
<path d="M30.9153 9.40883C30.9475 9.14739 30.9643 8.88121 30.9643 8.61109C30.9643 6.34062 29.1237 4.5 26.8532 4.5H19.9827C19.5506 4.5 19.1816 4.81209 19.1099 5.23825L16.5783 20.2852C16.4874 20.8251 16.9037 21.3172 17.4511 21.3172H19.9638C20.396 21.3172 20.7719 21.0053 20.8436 20.5791C20.8436 20.5791 20.8478 20.5541 20.8554 20.5091H20.8554L20.5052 22.5904C20.4252 23.0663 20.7921 23.5 21.2746 23.5H23.4728C23.8538 23.5 24.179 23.2249 24.2422 22.8493L24.8667 19.1376C24.9743 18.4978 25.5283 18.0293 26.177 18.0293H26.7545C29.8914 18.0293 32.4343 15.4863 32.4343 12.3495C32.4343 11.1357 31.8343 10.0628 30.9153 9.40883Z" fill="#002987"/>
<path d="M30.9153 9.40869C30.5222 12.6067 27.7965 15.0831 24.4922 15.0831H22.575C22.1422 15.0831 21.7685 15.3713 21.6513 15.7788L20.5053 22.5902C20.4252 23.0661 20.792 23.4999 21.2746 23.4999H23.4728C23.8538 23.4999 24.179 23.2248 24.2421 22.8492L24.8667 19.1375C24.9743 18.4976 25.5282 18.0291 26.177 18.0291H26.7545C29.8914 18.0291 32.4343 15.4862 32.4343 12.3494C32.4343 11.1356 31.8343 10.0626 30.9153 9.40869Z" fill="#0085CC"/>
<path d="M22.575 15.0832H24.4922C27.7966 15.0832 30.5222 12.6069 30.9153 9.40885C30.3257 8.98929 29.6052 8.7417 28.8265 8.7417H23.8223C23.2525 8.7417 22.766 9.15313 22.6715 9.71497L21.6512 15.7789C21.7685 15.3714 22.1422 15.0832 22.575 15.0832Z" fill="#00186A"/>
</g>
<defs>
<clipPath id="clip0_356_208">
<rect width="19" height="19" fill="white" transform="translate(15 4.5)"/>
</clipPath>
</defs>
</svg>
