<svg width="18" height="18" viewBox="0 0 18 18" fill="none" xmlns="http://www.w3.org/2000/svg">
<path d="M12.6788 9.6388H3.52675C3.34325 9.6388 3.19094 9.57818 3.06981 9.45693C2.94856 9.33568 2.88794 9.18336 2.88794 8.99999C2.88794 8.81662 2.94856 8.6643 3.06981 8.54305C3.19094 8.4218 3.34325 8.36118 3.52675 8.36118H12.6788L8.5525 4.23505C8.425 4.10755 8.36044 3.95737 8.35881 3.78449C8.35706 3.61149 8.42 3.46093 8.54763 3.3328C8.67538 3.20418 8.82594 3.14062 8.99931 3.14212C9.17269 3.14362 9.32363 3.20805 9.45213 3.33543L14.6646 8.54793C14.7329 8.61693 14.7825 8.68868 14.8135 8.76318C14.8446 8.8378 14.8602 8.91693 14.8602 9.00055C14.8602 9.08418 14.8446 9.16312 14.8135 9.23736C14.7825 9.31174 14.7329 9.3833 14.6646 9.45205L9.44763 14.6646C9.31575 14.7949 9.16469 14.8601 8.99444 14.8601C8.82431 14.8601 8.6755 14.7946 8.548 14.6634C8.42063 14.5358 8.35694 14.3867 8.35694 14.2162C8.35694 14.0459 8.42063 13.8969 8.548 13.7694L12.6788 9.6388Z" fill="#FFF9EB"/>
</svg>
