<svg width="13" height="23" viewBox="0 0 13 23" fill="none" xmlns="http://www.w3.org/2000/svg">
<mask id="path-1-outside-1_313_2450" maskUnits="userSpaceOnUse" x="-5.9046" y="-1.83868" width="22.2583" height="25.5526" fill="black">
<rect fill="white" x="-5.9046" y="-1.83868" width="22.2583" height="25.5526"/>
<path d="M6.13185 0.978232C6.08672 1.01583 6.0807 1.08373 6.119 1.12899L9.21403 4.80146C9.22292 4.81141 9.23192 4.8195 9.2429 4.82584C9.28097 4.84782 9.33021 4.84538 9.36583 4.8158C9.4117 4.77862 9.41698 4.7103 9.37869 4.66505L6.2844 0.99301C6.24652 0.94703 6.17771 0.941057 6.13185 0.978232Z"/>
<path d="M3.68466 5.39954C3.69491 5.40546 3.70672 5.41035 3.71948 5.41193L8.44123 6.27853C8.5003 6.28949 8.55568 6.25106 8.56609 6.19245C8.57577 6.13342 8.53652 6.07797 8.47818 6.06743L3.757 5.20116C3.69792 5.1902 3.64255 5.22863 3.63214 5.28724C3.62318 5.33319 3.64586 5.37714 3.68466 5.39954Z"/>
<path d="M8.92497 5.11304C8.93041 5.11714 8.93512 5.12082 8.94097 5.12421C8.98563 5.14999 9.04354 5.14098 9.07707 5.10151C9.11582 5.05637 9.10897 4.98876 9.06347 4.95092L5.38477 1.86351C5.33968 1.82495 5.271 1.83062 5.2334 1.87546C5.19538 1.92103 5.20149 1.98821 5.247 2.02606L8.92497 5.11304Z"/>
<path d="M4.64839 2.87333C4.59715 2.84374 4.53088 2.86046 4.50123 2.91182C4.47158 2.96318 4.4895 3.0285 4.54148 3.05851L8.69644 5.46992C8.74768 5.4995 8.81395 5.48278 8.8436 5.43143C8.87325 5.38007 8.85533 5.31474 8.80335 5.28474L4.64839 2.87333Z"/>
<path d="M4.01135 4.19141C4.01647 4.19437 4.02274 4.19702 4.02829 4.19926L8.53389 5.86309C8.59015 5.884 8.65139 5.8557 8.67184 5.79999C8.69229 5.74429 8.66318 5.68312 8.60692 5.66221L4.10132 3.99838C4.04506 3.97747 3.98382 4.00577 3.96337 4.06148C3.94553 4.11097 3.96669 4.16562 4.01135 4.19141Z"/>
<path d="M11.8659 9.34845C11.7566 8.96127 11.5578 8.59381 11.2944 8.26905C11.3642 8.24281 11.4265 8.19395 11.4666 8.1245C11.5594 7.96392 11.5046 7.75776 11.3436 7.66477L12.074 6.39962C12.1037 6.34826 12.085 6.28252 12.0338 6.25293C11.3551 5.86112 10.7604 5.29689 10.7539 5.29121C10.7306 5.26906 10.6972 5.25752 10.6633 5.26208C10.6306 5.26634 10.602 5.28549 10.5853 5.31443L9.75504 6.75246C9.60049 6.68541 9.41644 6.74214 9.32999 6.89188C9.28947 6.96205 9.27908 7.04092 9.29084 7.11522C8.89145 7.05631 8.48158 7.07139 8.09307 7.17115C7.31503 7.36911 6.66796 7.85585 6.27163 8.54231L0.176701 19.099C0.0986039 19.2343 0.079688 19.3922 0.122245 19.545C0.164485 19.6967 0.263987 19.8236 0.402354 19.9035L4.68479 22.375C4.82242 22.4545 4.9828 22.4776 5.13529 22.4383C5.28894 22.3988 5.41619 22.3035 5.49429 22.1682L11.5892 11.6115C11.9848 10.9246 12.0832 10.1201 11.8659 9.34845ZM11.8333 6.38204L11.1559 7.55532L9.94503 6.85623L10.0344 6.70143C10.2178 6.73883 10.4318 6.63189 10.5512 6.42501C10.6707 6.21813 10.657 5.97973 10.5322 5.8392L10.7064 5.53756C10.8967 5.70823 11.3311 6.07858 11.8333 6.38204ZM10.4107 6.0497C10.4314 6.12533 10.4165 6.22567 10.3638 6.31681C10.3112 6.40796 10.2318 6.4711 10.1559 6.49094L10.4107 6.0497ZM9.68436 6.95267L11.2356 7.8483C11.2935 7.88169 11.312 7.95606 11.2782 8.01465C11.2444 8.07324 11.1695 8.09466 11.1124 8.06169L9.56116 7.16606C9.50333 7.13267 9.48404 7.05788 9.51829 6.99856C9.55211 6.93997 9.62653 6.91928 9.68436 6.95267ZM5.30661 22.0587C5.25733 22.1441 5.17657 22.2045 5.07999 22.2298C4.98268 22.2546 4.88074 22.2401 4.79216 22.189L0.510142 19.7168C0.42156 19.6656 0.358047 19.5846 0.330899 19.4879C0.303752 19.3912 0.315701 19.291 0.364986 19.2057L6.45949 8.64969C6.827 8.01314 7.42716 7.56201 8.14928 7.37805C8.57832 7.26891 9.03307 7.26235 9.46771 7.35996L10.9912 8.23954C11.3076 8.57748 11.5373 8.97922 11.6574 9.40348C11.8596 10.1201 11.7678 10.8657 11.4003 11.5023L5.30539 22.059L5.30661 22.0587Z"/>
<path d="M10.8393 8.36218C10.8322 8.35421 10.8238 8.34842 10.8143 8.34292L9.47022 7.5669C9.4607 7.56141 9.45035 7.55736 9.43989 7.55518C9.02814 7.4602 8.59505 7.46478 8.18897 7.5679C7.5121 7.73939 6.94905 8.1618 6.60409 8.75928L0.572672 19.206C0.490816 19.3478 0.540814 19.53 0.684299 19.6128L4.79427 21.9857C4.93776 22.0686 5.12129 22.0212 5.20315 21.8794L11.235 11.4319C11.5795 10.8352 11.665 10.1361 11.4743 9.46371C11.3602 9.06121 11.1402 8.67961 10.8393 8.36218ZM5.01609 21.7705C4.99312 21.8103 4.9418 21.8231 4.90153 21.7998L0.791143 19.4277C0.750879 19.4044 0.737459 19.3533 0.760011 19.3142L6.79186 8.86675C7.10759 8.3199 7.62343 7.93196 8.24511 7.7749C8.6125 7.68127 9.0041 7.67589 9.37757 7.75939L10.6931 8.51892C10.9649 8.80894 11.1634 9.15501 11.2664 9.51925C11.4405 10.1358 11.3629 10.7757 11.0472 11.3226L5.01574 21.7693L5.01609 21.7705Z"/>
<path d="M3.36573 5.95021C3.1915 5.84961 3.06708 5.68808 3.01426 5.49556C2.96143 5.30304 2.98689 5.1017 3.08629 4.92954C3.15729 4.80657 3.26364 4.7069 3.39301 4.64175C3.41945 4.62807 3.44002 4.60427 3.44732 4.57473C3.45535 4.5456 3.45062 4.5149 3.4343 4.48908C3.38877 4.41747 3.35841 4.35171 3.3408 4.28753C3.28797 4.095 3.31343 3.89367 3.41283 3.72151C3.50513 3.56165 3.65599 3.44236 3.83849 3.38664C3.86691 3.37798 3.88707 3.34814 3.89991 3.32083C3.91275 3.29352 3.90969 3.25317 3.89764 3.225C3.88759 3.20184 3.87795 3.17795 3.87062 3.15346C3.81779 2.96093 3.84326 2.7596 3.94265 2.58744C4.04205 2.41528 4.20327 2.29328 4.39683 2.24204C4.42557 2.23453 4.45484 2.23117 4.49435 2.22698C4.52477 2.22332 4.55173 2.20706 4.56854 2.18301C4.58577 2.15824 4.5916 2.12785 4.58531 2.09817C4.54336 1.91385 4.57082 1.72426 4.66269 1.56514C4.76209 1.39298 4.92331 1.27098 5.11686 1.21974C5.18355 1.2023 5.25683 1.19542 5.34192 1.20019C5.37245 1.20142 5.4014 1.19016 5.42261 1.16865C5.44381 1.14713 5.45487 1.11783 5.45349 1.0881C5.44691 0.947342 5.47921 0.806858 5.54979 0.684602C5.64919 0.512442 5.81041 0.390438 6.00396 0.339206C6.19712 0.28869 6.39993 0.316096 6.57417 0.416692C6.62615 0.446701 6.69168 0.429562 6.72133 0.378204C6.75098 0.326846 6.73306 0.261521 6.68108 0.231512C6.45707 0.102177 6.19653 0.066528 5.94776 0.132196C5.69827 0.197446 5.49129 0.354761 5.3635 0.576106C5.29083 0.701971 5.24869 0.84258 5.23992 0.987955C5.17668 0.990986 5.11762 1.00029 5.06129 1.01502C4.8118 1.08027 4.60481 1.23759 4.47702 1.45893C4.37721 1.63182 4.33596 1.83175 4.35774 2.03242C4.35199 2.03392 4.34666 2.0347 4.34091 2.0362C4.09142 2.10145 3.88444 2.25877 3.75664 2.48011C3.62885 2.70146 3.59569 2.96008 3.66392 3.20878C3.66518 3.21336 3.66612 3.2168 3.6678 3.22066C3.48125 3.302 3.32757 3.438 3.22692 3.61233C3.09913 3.83367 3.06597 4.0923 3.1342 4.34099C3.14898 4.39486 3.17014 4.44951 3.1984 4.50537C3.07573 4.58597 2.97346 4.69379 2.89996 4.8211C2.77217 5.04245 2.73901 5.30107 2.80724 5.54977C2.87548 5.79846 3.03589 6.00585 3.25991 6.13518C3.31189 6.16519 3.37742 6.14805 3.40707 6.09669C3.43589 6.04678 3.41771 5.98022 3.36573 5.95021Z"/>
</mask>
<path d="M6.13185 0.978232C6.08672 1.01583 6.0807 1.08373 6.119 1.12899L9.21403 4.80146C9.22292 4.81141 9.23192 4.8195 9.2429 4.82584C9.28097 4.84782 9.33021 4.84538 9.36583 4.8158C9.4117 4.77862 9.41698 4.7103 9.37869 4.66505L6.2844 0.99301C6.24652 0.94703 6.17771 0.941057 6.13185 0.978232Z" fill="#E6007E"/>
<path d="M3.68466 5.39954C3.69491 5.40546 3.70672 5.41035 3.71948 5.41193L8.44123 6.27853C8.5003 6.28949 8.55568 6.25106 8.56609 6.19245C8.57577 6.13342 8.53652 6.07797 8.47818 6.06743L3.757 5.20116C3.69792 5.1902 3.64255 5.22863 3.63214 5.28724C3.62318 5.33319 3.64586 5.37714 3.68466 5.39954Z" fill="#E6007E"/>
<path d="M8.92497 5.11304C8.93041 5.11714 8.93512 5.12082 8.94097 5.12421C8.98563 5.14999 9.04354 5.14098 9.07707 5.10151C9.11582 5.05637 9.10897 4.98876 9.06347 4.95092L5.38477 1.86351C5.33968 1.82495 5.271 1.83062 5.2334 1.87546C5.19538 1.92103 5.20149 1.98821 5.247 2.02606L8.92497 5.11304Z" fill="#E6007E"/>
<path d="M4.64839 2.87333C4.59715 2.84374 4.53088 2.86046 4.50123 2.91182C4.47158 2.96318 4.4895 3.0285 4.54148 3.05851L8.69644 5.46992C8.74768 5.4995 8.81395 5.48278 8.8436 5.43143C8.87325 5.38007 8.85533 5.31474 8.80335 5.28474L4.64839 2.87333Z" fill="#E6007E"/>
<path d="M4.01135 4.19141C4.01647 4.19437 4.02274 4.19702 4.02829 4.19926L8.53389 5.86309C8.59015 5.884 8.65139 5.8557 8.67184 5.79999C8.69229 5.74429 8.66318 5.68312 8.60692 5.66221L4.10132 3.99838C4.04506 3.97747 3.98382 4.00577 3.96337 4.06148C3.94553 4.11097 3.96669 4.16562 4.01135 4.19141Z" fill="#E6007E"/>
<path d="M11.8659 9.34845C11.7566 8.96127 11.5578 8.59381 11.2944 8.26905C11.3642 8.24281 11.4265 8.19395 11.4666 8.1245C11.5594 7.96392 11.5046 7.75776 11.3436 7.66477L12.074 6.39962C12.1037 6.34826 12.085 6.28252 12.0338 6.25293C11.3551 5.86112 10.7604 5.29689 10.7539 5.29121C10.7306 5.26906 10.6972 5.25752 10.6633 5.26208C10.6306 5.26634 10.602 5.28549 10.5853 5.31443L9.75504 6.75246C9.60049 6.68541 9.41644 6.74214 9.32999 6.89188C9.28947 6.96205 9.27908 7.04092 9.29084 7.11522C8.89145 7.05631 8.48158 7.07139 8.09307 7.17115C7.31503 7.36911 6.66796 7.85585 6.27163 8.54231L0.176701 19.099C0.0986039 19.2343 0.079688 19.3922 0.122245 19.545C0.164485 19.6967 0.263987 19.8236 0.402354 19.9035L4.68479 22.375C4.82242 22.4545 4.9828 22.4776 5.13529 22.4383C5.28894 22.3988 5.41619 22.3035 5.49429 22.1682L11.5892 11.6115C11.9848 10.9246 12.0832 10.1201 11.8659 9.34845ZM11.8333 6.38204L11.1559 7.55532L9.94503 6.85623L10.0344 6.70143C10.2178 6.73883 10.4318 6.63189 10.5512 6.42501C10.6707 6.21813 10.657 5.97973 10.5322 5.8392L10.7064 5.53756C10.8967 5.70823 11.3311 6.07858 11.8333 6.38204ZM10.4107 6.0497C10.4314 6.12533 10.4165 6.22567 10.3638 6.31681C10.3112 6.40796 10.2318 6.4711 10.1559 6.49094L10.4107 6.0497ZM9.68436 6.95267L11.2356 7.8483C11.2935 7.88169 11.312 7.95606 11.2782 8.01465C11.2444 8.07324 11.1695 8.09466 11.1124 8.06169L9.56116 7.16606C9.50333 7.13267 9.48404 7.05788 9.51829 6.99856C9.55211 6.93997 9.62653 6.91928 9.68436 6.95267ZM5.30661 22.0587C5.25733 22.1441 5.17657 22.2045 5.07999 22.2298C4.98268 22.2546 4.88074 22.2401 4.79216 22.189L0.510142 19.7168C0.42156 19.6656 0.358047 19.5846 0.330899 19.4879C0.303752 19.3912 0.315701 19.291 0.364986 19.2057L6.45949 8.64969C6.827 8.01314 7.42716 7.56201 8.14928 7.37805C8.57832 7.26891 9.03307 7.26235 9.46771 7.35996L10.9912 8.23954C11.3076 8.57748 11.5373 8.97922 11.6574 9.40348C11.8596 10.1201 11.7678 10.8657 11.4003 11.5023L5.30539 22.059L5.30661 22.0587Z" fill="#E6007E"/>
<path d="M10.8393 8.36218C10.8322 8.35421 10.8238 8.34842 10.8143 8.34292L9.47022 7.5669C9.4607 7.56141 9.45035 7.55736 9.43989 7.55518C9.02814 7.4602 8.59505 7.46478 8.18897 7.5679C7.5121 7.73939 6.94905 8.1618 6.60409 8.75928L0.572672 19.206C0.490816 19.3478 0.540814 19.53 0.684299 19.6128L4.79427 21.9857C4.93776 22.0686 5.12129 22.0212 5.20315 21.8794L11.235 11.4319C11.5795 10.8352 11.665 10.1361 11.4743 9.46371C11.3602 9.06121 11.1402 8.67961 10.8393 8.36218ZM5.01609 21.7705C4.99312 21.8103 4.9418 21.8231 4.90153 21.7998L0.791143 19.4277C0.750879 19.4044 0.737459 19.3533 0.760011 19.3142L6.79186 8.86675C7.10759 8.3199 7.62343 7.93196 8.24511 7.7749C8.6125 7.68127 9.0041 7.67589 9.37757 7.75939L10.6931 8.51892C10.9649 8.80894 11.1634 9.15501 11.2664 9.51925C11.4405 10.1358 11.3629 10.7757 11.0472 11.3226L5.01574 21.7693L5.01609 21.7705Z" fill="#E6007E"/>
<path d="M3.36573 5.95021C3.1915 5.84961 3.06708 5.68808 3.01426 5.49556C2.96143 5.30304 2.98689 5.1017 3.08629 4.92954C3.15729 4.80657 3.26364 4.7069 3.39301 4.64175C3.41945 4.62807 3.44002 4.60427 3.44732 4.57473C3.45535 4.5456 3.45062 4.5149 3.4343 4.48908C3.38877 4.41747 3.35841 4.35171 3.3408 4.28753C3.28797 4.095 3.31343 3.89367 3.41283 3.72151C3.50513 3.56165 3.65599 3.44236 3.83849 3.38664C3.86691 3.37798 3.88707 3.34814 3.89991 3.32083C3.91275 3.29352 3.90969 3.25317 3.89764 3.225C3.88759 3.20184 3.87795 3.17795 3.87062 3.15346C3.81779 2.96093 3.84326 2.7596 3.94265 2.58744C4.04205 2.41528 4.20327 2.29328 4.39683 2.24204C4.42557 2.23453 4.45484 2.23117 4.49435 2.22698C4.52477 2.22332 4.55173 2.20706 4.56854 2.18301C4.58577 2.15824 4.5916 2.12785 4.58531 2.09817C4.54336 1.91385 4.57082 1.72426 4.66269 1.56514C4.76209 1.39298 4.92331 1.27098 5.11686 1.21974C5.18355 1.2023 5.25683 1.19542 5.34192 1.20019C5.37245 1.20142 5.4014 1.19016 5.42261 1.16865C5.44381 1.14713 5.45487 1.11783 5.45349 1.0881C5.44691 0.947342 5.47921 0.806858 5.54979 0.684602C5.64919 0.512442 5.81041 0.390438 6.00396 0.339206C6.19712 0.28869 6.39993 0.316096 6.57417 0.416692C6.62615 0.446701 6.69168 0.429562 6.72133 0.378204C6.75098 0.326846 6.73306 0.261521 6.68108 0.231512C6.45707 0.102177 6.19653 0.066528 5.94776 0.132196C5.69827 0.197446 5.49129 0.354761 5.3635 0.576106C5.29083 0.701971 5.24869 0.84258 5.23992 0.987955C5.17668 0.990986 5.11762 1.00029 5.06129 1.01502C4.8118 1.08027 4.60481 1.23759 4.47702 1.45893C4.37721 1.63182 4.33596 1.83175 4.35774 2.03242C4.35199 2.03392 4.34666 2.0347 4.34091 2.0362C4.09142 2.10145 3.88444 2.25877 3.75664 2.48011C3.62885 2.70146 3.59569 2.96008 3.66392 3.20878C3.66518 3.21336 3.66612 3.2168 3.6678 3.22066C3.48125 3.302 3.32757 3.438 3.22692 3.61233C3.09913 3.83367 3.06597 4.0923 3.1342 4.34099C3.14898 4.39486 3.17014 4.44951 3.1984 4.50537C3.07573 4.58597 2.97346 4.69379 2.89996 4.8211C2.77217 5.04245 2.73901 5.30107 2.80724 5.54977C2.87548 5.79846 3.03589 6.00585 3.25991 6.13518C3.31189 6.16519 3.37742 6.14805 3.40707 6.09669C3.43589 6.04678 3.41771 5.98022 3.36573 5.95021Z" fill="#E6007E"/>
<path d="M6.13185 0.978232C6.08672 1.01583 6.0807 1.08373 6.119 1.12899L9.21403 4.80146C9.22292 4.81141 9.23192 4.8195 9.2429 4.82584C9.28097 4.84782 9.33021 4.84538 9.36583 4.8158C9.4117 4.77862 9.41698 4.7103 9.37869 4.66505L6.2844 0.99301C6.24652 0.94703 6.17771 0.941057 6.13185 0.978232Z" stroke="#E6007E" stroke-width="0.2" mask="url(#path-1-outside-1_313_2450)"/>
<path d="M3.68466 5.39954C3.69491 5.40546 3.70672 5.41035 3.71948 5.41193L8.44123 6.27853C8.5003 6.28949 8.55568 6.25106 8.56609 6.19245C8.57577 6.13342 8.53652 6.07797 8.47818 6.06743L3.757 5.20116C3.69792 5.1902 3.64255 5.22863 3.63214 5.28724C3.62318 5.33319 3.64586 5.37714 3.68466 5.39954Z" stroke="#E6007E" stroke-width="0.2" mask="url(#path-1-outside-1_313_2450)"/>
<path d="M8.92497 5.11304C8.93041 5.11714 8.93512 5.12082 8.94097 5.12421C8.98563 5.14999 9.04354 5.14098 9.07707 5.10151C9.11582 5.05637 9.10897 4.98876 9.06347 4.95092L5.38477 1.86351C5.33968 1.82495 5.271 1.83062 5.2334 1.87546C5.19538 1.92103 5.20149 1.98821 5.247 2.02606L8.92497 5.11304Z" stroke="#E6007E" stroke-width="0.2" mask="url(#path-1-outside-1_313_2450)"/>
<path d="M4.64839 2.87333C4.59715 2.84374 4.53088 2.86046 4.50123 2.91182C4.47158 2.96318 4.4895 3.0285 4.54148 3.05851L8.69644 5.46992C8.74768 5.4995 8.81395 5.48278 8.8436 5.43143C8.87325 5.38007 8.85533 5.31474 8.80335 5.28474L4.64839 2.87333Z" stroke="#E6007E" stroke-width="0.2" mask="url(#path-1-outside-1_313_2450)"/>
<path d="M4.01135 4.19141C4.01647 4.19437 4.02274 4.19702 4.02829 4.19926L8.53389 5.86309C8.59015 5.884 8.65139 5.8557 8.67184 5.79999C8.69229 5.74429 8.66318 5.68312 8.60692 5.66221L4.10132 3.99838C4.04506 3.97747 3.98382 4.00577 3.96337 4.06148C3.94553 4.11097 3.96669 4.16562 4.01135 4.19141Z" stroke="#E6007E" stroke-width="0.2" mask="url(#path-1-outside-1_313_2450)"/>
<path d="M11.8659 9.34845C11.7566 8.96127 11.5578 8.59381 11.2944 8.26905C11.3642 8.24281 11.4265 8.19395 11.4666 8.1245C11.5594 7.96392 11.5046 7.75776 11.3436 7.66477L12.074 6.39962C12.1037 6.34826 12.085 6.28252 12.0338 6.25293C11.3551 5.86112 10.7604 5.29689 10.7539 5.29121C10.7306 5.26906 10.6972 5.25752 10.6633 5.26208C10.6306 5.26634 10.602 5.28549 10.5853 5.31443L9.75504 6.75246C9.60049 6.68541 9.41644 6.74214 9.32999 6.89188C9.28947 6.96205 9.27908 7.04092 9.29084 7.11522C8.89145 7.05631 8.48158 7.07139 8.09307 7.17115C7.31503 7.36911 6.66796 7.85585 6.27163 8.54231L0.176701 19.099C0.0986039 19.2343 0.079688 19.3922 0.122245 19.545C0.164485 19.6967 0.263987 19.8236 0.402354 19.9035L4.68479 22.375C4.82242 22.4545 4.9828 22.4776 5.13529 22.4383C5.28894 22.3988 5.41619 22.3035 5.49429 22.1682L11.5892 11.6115C11.9848 10.9246 12.0832 10.1201 11.8659 9.34845ZM11.8333 6.38204L11.1559 7.55532L9.94503 6.85623L10.0344 6.70143C10.2178 6.73883 10.4318 6.63189 10.5512 6.42501C10.6707 6.21813 10.657 5.97973 10.5322 5.8392L10.7064 5.53756C10.8967 5.70823 11.3311 6.07858 11.8333 6.38204ZM10.4107 6.0497C10.4314 6.12533 10.4165 6.22567 10.3638 6.31681C10.3112 6.40796 10.2318 6.4711 10.1559 6.49094L10.4107 6.0497ZM9.68436 6.95267L11.2356 7.8483C11.2935 7.88169 11.312 7.95606 11.2782 8.01465C11.2444 8.07324 11.1695 8.09466 11.1124 8.06169L9.56116 7.16606C9.50333 7.13267 9.48404 7.05788 9.51829 6.99856C9.55211 6.93997 9.62653 6.91928 9.68436 6.95267ZM5.30661 22.0587C5.25733 22.1441 5.17657 22.2045 5.07999 22.2298C4.98268 22.2546 4.88074 22.2401 4.79216 22.189L0.510142 19.7168C0.42156 19.6656 0.358047 19.5846 0.330899 19.4879C0.303752 19.3912 0.315701 19.291 0.364986 19.2057L6.45949 8.64969C6.827 8.01314 7.42716 7.56201 8.14928 7.37805C8.57832 7.26891 9.03307 7.26235 9.46771 7.35996L10.9912 8.23954C11.3076 8.57748 11.5373 8.97922 11.6574 9.40348C11.8596 10.1201 11.7678 10.8657 11.4003 11.5023L5.30539 22.059L5.30661 22.0587Z" stroke="#E6007E" stroke-width="0.2" mask="url(#path-1-outside-1_313_2450)"/>
<path d="M10.8393 8.36218C10.8322 8.35421 10.8238 8.34842 10.8143 8.34292L9.47022 7.5669C9.4607 7.56141 9.45035 7.55736 9.43989 7.55518C9.02814 7.4602 8.59505 7.46478 8.18897 7.5679C7.5121 7.73939 6.94905 8.1618 6.60409 8.75928L0.572672 19.206C0.490816 19.3478 0.540814 19.53 0.684299 19.6128L4.79427 21.9857C4.93776 22.0686 5.12129 22.0212 5.20315 21.8794L11.235 11.4319C11.5795 10.8352 11.665 10.1361 11.4743 9.46371C11.3602 9.06121 11.1402 8.67961 10.8393 8.36218ZM5.01609 21.7705C4.99312 21.8103 4.9418 21.8231 4.90153 21.7998L0.791143 19.4277C0.750879 19.4044 0.737459 19.3533 0.760011 19.3142L6.79186 8.86675C7.10759 8.3199 7.62343 7.93196 8.24511 7.7749C8.6125 7.68127 9.0041 7.67589 9.37757 7.75939L10.6931 8.51892C10.9649 8.80894 11.1634 9.15501 11.2664 9.51925C11.4405 10.1358 11.3629 10.7757 11.0472 11.3226L5.01574 21.7693L5.01609 21.7705Z" stroke="#E6007E" stroke-width="0.2" mask="url(#path-1-outside-1_313_2450)"/>
<path d="M3.36573 5.95021C3.1915 5.84961 3.06708 5.68808 3.01426 5.49556C2.96143 5.30304 2.98689 5.1017 3.08629 4.92954C3.15729 4.80657 3.26364 4.7069 3.39301 4.64175C3.41945 4.62807 3.44002 4.60427 3.44732 4.57473C3.45535 4.5456 3.45062 4.5149 3.4343 4.48908C3.38877 4.41747 3.35841 4.35171 3.3408 4.28753C3.28797 4.095 3.31343 3.89367 3.41283 3.72151C3.50513 3.56165 3.65599 3.44236 3.83849 3.38664C3.86691 3.37798 3.88707 3.34814 3.89991 3.32083C3.91275 3.29352 3.90969 3.25317 3.89764 3.225C3.88759 3.20184 3.87795 3.17795 3.87062 3.15346C3.81779 2.96093 3.84326 2.7596 3.94265 2.58744C4.04205 2.41528 4.20327 2.29328 4.39683 2.24204C4.42557 2.23453 4.45484 2.23117 4.49435 2.22698C4.52477 2.22332 4.55173 2.20706 4.56854 2.18301C4.58577 2.15824 4.5916 2.12785 4.58531 2.09817C4.54336 1.91385 4.57082 1.72426 4.66269 1.56514C4.76209 1.39298 4.92331 1.27098 5.11686 1.21974C5.18355 1.2023 5.25683 1.19542 5.34192 1.20019C5.37245 1.20142 5.4014 1.19016 5.42261 1.16865C5.44381 1.14713 5.45487 1.11783 5.45349 1.0881C5.44691 0.947342 5.47921 0.806858 5.54979 0.684602C5.64919 0.512442 5.81041 0.390438 6.00396 0.339206C6.19712 0.28869 6.39993 0.316096 6.57417 0.416692C6.62615 0.446701 6.69168 0.429562 6.72133 0.378204C6.75098 0.326846 6.73306 0.261521 6.68108 0.231512C6.45707 0.102177 6.19653 0.066528 5.94776 0.132196C5.69827 0.197446 5.49129 0.354761 5.3635 0.576106C5.29083 0.701971 5.24869 0.84258 5.23992 0.987955C5.17668 0.990986 5.11762 1.00029 5.06129 1.01502C4.8118 1.08027 4.60481 1.23759 4.47702 1.45893C4.37721 1.63182 4.33596 1.83175 4.35774 2.03242C4.35199 2.03392 4.34666 2.0347 4.34091 2.0362C4.09142 2.10145 3.88444 2.25877 3.75664 2.48011C3.62885 2.70146 3.59569 2.96008 3.66392 3.20878C3.66518 3.21336 3.66612 3.2168 3.6678 3.22066C3.48125 3.302 3.32757 3.438 3.22692 3.61233C3.09913 3.83367 3.06597 4.0923 3.1342 4.34099C3.14898 4.39486 3.17014 4.44951 3.1984 4.50537C3.07573 4.58597 2.97346 4.69379 2.89996 4.8211C2.77217 5.04245 2.73901 5.30107 2.80724 5.54977C2.87548 5.79846 3.03589 6.00585 3.25991 6.13518C3.31189 6.16519 3.37742 6.14805 3.40707 6.09669C3.43589 6.04678 3.41771 5.98022 3.36573 5.95021Z" stroke="#E6007E" stroke-width="0.2" mask="url(#path-1-outside-1_313_2450)"/>
</svg>
