<svg width="45" height="45" viewBox="0 0 45 45" fill="none" xmlns="http://www.w3.org/2000/svg">
<path d="M22.2581 10C23.8836 10 25.4425 10.6457 26.5919 11.7952C27.7414 12.9446 28.3871 14.5035 28.3871 16.129C28.3871 17.7546 27.7414 19.3135 26.5919 20.4629C25.4425 21.6123 23.8836 22.2581 22.2581 22.2581C20.6325 22.2581 19.0736 21.6123 17.9242 20.4629C16.7748 19.3135 16.129 17.7546 16.129 16.129C16.129 14.5035 16.7748 12.9446 17.9242 11.7952C19.0736 10.6457 20.6325 10 22.2581 10ZM22.2581 13.0645C21.4453 13.0645 20.6658 13.3874 20.0911 13.9621C19.5164 14.5368 19.1935 15.3163 19.1935 16.129C19.1935 16.9418 19.5164 17.7213 20.0911 18.296C20.6658 18.8707 21.4453 19.1935 22.2581 19.1935C23.0708 19.1935 23.8503 18.8707 24.425 18.296C24.9997 17.7213 25.3226 16.9418 25.3226 16.129C25.3226 15.3163 24.9997 14.5368 24.425 13.9621C23.8503 13.3874 23.0708 13.0645 22.2581 13.0645ZM22.2581 23.7903C26.3492 23.7903 34.5161 25.8282 34.5161 29.9194V34.5161H10V29.9194C10 25.8282 18.1669 23.7903 22.2581 23.7903ZM22.2581 26.7016C17.7073 26.7016 12.9113 28.9387 12.9113 29.9194V31.6048H31.6048V29.9194C31.6048 28.9387 26.8089 26.7016 22.2581 26.7016Z" fill="#F80090"/>
</svg>
