<svg width="49" height="28" viewBox="0 0 49 28" fill="none" xmlns="http://www.w3.org/2000/svg">
<rect x="0.5" y="0.5" width="48" height="27" rx="3.5" fill="white"/>
<rect x="0.5" y="0.5" width="48" height="27" rx="3.5" stroke="#EBEBEB"/>
<g clip-path="url(#clip0_356_185)">
<path d="M20.0487 8.28687L15.2053 19.7399H12.0442L9.66242 10.6007C9.51579 10.0371 9.39049 9.83195 8.95082 9.59262C8.23062 9.20676 7.04597 8.84482 6 8.61937L6.07321 8.28694H11.1592C11.8078 8.28694 12.391 8.7157 12.5377 9.45483L13.797 16.0836L16.9076 8.28694L20.0487 8.28687ZM32.4311 15.9989C32.4451 12.9778 28.2127 12.8133 28.2431 11.4618C28.2514 11.0492 28.646 10.6126 29.5101 10.5024C29.9392 10.4458 31.1201 10.4044 32.4585 11.0133L32.9831 8.58572C32.263 8.32669 31.3373 8.07861 30.1869 8.07861C27.232 8.07861 25.1518 9.63616 25.1343 11.8647C25.1149 13.5127 26.6184 14.4324 27.7525 14.9813C28.9169 15.5429 29.3063 15.9014 29.3022 16.4051C29.2946 17.1738 28.3731 17.5098 27.5135 17.5249C26.0101 17.5481 25.138 17.1222 24.4416 16.8008L23.9003 19.3119C24.5979 19.6293 25.8895 19.9048 27.2261 19.9211C30.3667 19.9209 32.4212 18.38 32.4311 15.9989ZM40.2342 19.74H43L40.5867 8.28694H38.0335C37.4598 8.28694 36.9761 8.61852 36.7606 9.12648L32.2771 19.74H35.4152L36.0381 18.0295H39.8741L40.2342 19.74ZM36.8982 15.6821L38.4726 11.3816L39.3783 15.6821H36.8982ZM24.3211 8.28687L21.8475 19.7399H18.8572L21.3314 8.28687H24.3211Z" fill="#1A2ADF"/>
</g>
<defs>
<clipPath id="clip0_356_185">
<rect width="37" height="20" fill="white" transform="translate(6 4)"/>
</clipPath>
</defs>
</svg>
