<svg width="40" height="40" viewBox="0 0 40 40" fill="none" xmlns="http://www.w3.org/2000/svg">
<g clip-path="url(#clip0_356_177)">
<path d="M24.6667 20.5002L17.8334 24.1668C17.6667 24.1668 17.5 24.3335 17.5 24.3335C17.3334 24.3335 17.1667 24.3335 17.1667 24.1668C17 24.0002 16.8334 23.8335 16.8334 23.5002V16.0002C16.8334 15.6668 17 15.5002 17.1667 15.3335C17.3334 15.1668 17.6667 15.1668 18 15.3335L24.8334 19.1668C25.1667 19.3335 25.3334 19.5002 25.3334 19.8335C25 20.0002 24.8334 20.3335 24.6667 20.5002Z" fill="white"/>
<path d="M32.8334 0.833496H7.16671C3.66671 0.833496 0.833374 3.66683 0.833374 7.16683V32.8335C0.833374 36.3335 3.66671 39.1668 7.16671 39.1668H32.8334C36.3334 39.1668 39.1667 36.3335 39.1667 32.8335V7.16683C39.1667 3.66683 36.3334 0.833496 32.8334 0.833496ZM33.5 21.0002C33.5 23.1668 33.1667 25.3335 33.1667 25.3335C33.1667 25.5002 32.8334 27.5002 32 28.5002C31 29.6668 29.6667 29.8335 29.1667 29.8335H29C25.5 30.1668 20 30.1668 20 30.1668C19.6667 30.1668 13.3334 30.1668 11.3334 29.8335C11.1667 29.8335 11.1667 29.8335 11 29.8335C10.3334 29.6668 9.00004 29.6668 8.00004 28.5002C7.00004 27.5002 6.66671 25.6668 6.66671 25.5002C6.66671 25.3335 6.33337 23.3335 6.33337 21.0002V19.0002C6.50004 16.8335 6.66671 14.6668 6.66671 14.6668C6.66671 14.5002 7.00004 12.5002 7.83337 11.5002C8.83337 10.3335 10.1667 10.1668 10.6667 10.1668H10.8334C14.5 9.8335 20 9.8335 20 9.8335C20 9.8335 25.5 9.8335 29 10.1668H29.1667C29.8334 10.1668 31 10.3335 32 11.5002C33 12.5002 33.3334 14.3335 33.3334 14.5002C33.3334 14.6668 33.6667 16.6668 33.6667 18.8335V21.0002H33.5Z" fill="white"/>
<path d="M18.1667 22.1668L22.5001 19.6668L18.1667 17.3335V22.1668Z" fill="white"/>
</g>
<defs>
<clipPath id="clip0_356_177">
<rect width="40" height="40" fill="white"/>
</clipPath>
</defs>
</svg>
